%TF.GenerationSoftware,KiCad,Pcbnew,9.0.6*%
%TF.CreationDate,2025-12-17T16:24:02+01:00*%
%TF.ProjectId,numpad,6e756d70-6164-42e6-9b69-6361645f7063,rev?*%
%TF.SameCoordinates,Original*%
%TF.FileFunction,Copper,L2,Bot*%
%TF.FilePolarity,Positive*%
%FSLAX46Y46*%
G04 Gerber Fmt 4.6, Leading zero omitted, Abs format (unit mm)*
G04 Created by KiCad (PCBNEW 9.0.6) date 2025-12-17 16:24:02*
%MOMM*%
%LPD*%
G01*
G04 APERTURE LIST*
G04 Aperture macros list*
%AMRoundRect*
0 Rectangle with rounded corners*
0 $1 Rounding radius*
0 $2 $3 $4 $5 $6 $7 $8 $9 X,Y pos of 4 corners*
0 Add a 4 corners polygon primitive as box body*
4,1,4,$2,$3,$4,$5,$6,$7,$8,$9,$2,$3,0*
0 Add four circle primitives for the rounded corners*
1,1,$1+$1,$2,$3*
1,1,$1+$1,$4,$5*
1,1,$1+$1,$6,$7*
1,1,$1+$1,$8,$9*
0 Add four rect primitives between the rounded corners*
20,1,$1+$1,$2,$3,$4,$5,0*
20,1,$1+$1,$4,$5,$6,$7,0*
20,1,$1+$1,$6,$7,$8,$9,0*
20,1,$1+$1,$8,$9,$2,$3,0*%
G04 Aperture macros list end*
%TA.AperFunction,ComponentPad*%
%ADD10RoundRect,0.250000X0.550000X0.550000X-0.550000X0.550000X-0.550000X-0.550000X0.550000X-0.550000X0*%
%TD*%
%TA.AperFunction,ComponentPad*%
%ADD11C,1.600000*%
%TD*%
%TA.AperFunction,ComponentPad*%
%ADD12C,2.200000*%
%TD*%
%TA.AperFunction,ComponentPad*%
%ADD13RoundRect,0.250000X-0.550000X0.550000X-0.550000X-0.550000X0.550000X-0.550000X0.550000X0.550000X0*%
%TD*%
%TA.AperFunction,ComponentPad*%
%ADD14C,1.524000*%
%TD*%
%TA.AperFunction,ComponentPad*%
%ADD15R,2.000000X2.000000*%
%TD*%
%TA.AperFunction,ComponentPad*%
%ADD16C,2.000000*%
%TD*%
%TA.AperFunction,ComponentPad*%
%ADD17R,3.200000X2.000000*%
%TD*%
%TA.AperFunction,Conductor*%
%ADD18C,0.200000*%
%TD*%
G04 APERTURE END LIST*
D10*
%TO.P,D1,1,K*%
%TO.N,Net-(D1-K)*%
X87788750Y-88106250D03*
D11*
%TO.P,D1,2,A*%
%TO.N,Net-(D1-A)*%
X80168750Y-88106250D03*
%TD*%
D10*
%TO.P,D9,1,K*%
%TO.N,Net-(D11-K)*%
X144938750Y-107156250D03*
D11*
%TO.P,D9,2,A*%
%TO.N,Net-(D9-A)*%
X137318750Y-107156250D03*
%TD*%
D12*
%TO.P,SW6,1,1*%
%TO.N,Net-(U1-GPIO0{slash}TX)*%
X121285000Y-130651250D03*
%TO.P,SW6,2,2*%
%TO.N,Net-(D7-A)*%
X114935000Y-133191250D03*
%TD*%
D10*
%TO.P,D11,1,K*%
%TO.N,Net-(D11-K)*%
X87788750Y-107156250D03*
D11*
%TO.P,D11,2,A*%
%TO.N,Net-(D11-A)*%
X80168750Y-107156250D03*
%TD*%
D10*
%TO.P,D6,1,K*%
%TO.N,Net-(D11-K)*%
X125888750Y-107156250D03*
D11*
%TO.P,D6,2,A*%
%TO.N,Net-(D6-A)*%
X118268750Y-107156250D03*
%TD*%
D10*
%TO.P,D15,1,K*%
%TO.N,Net-(D13-K)*%
X125888750Y-69056250D03*
D11*
%TO.P,D15,2,A*%
%TO.N,Net-(D15-A)*%
X118268750Y-69056250D03*
%TD*%
D10*
%TO.P,D4,1,K*%
%TO.N,Net-(D10-K)*%
X106838750Y-126206250D03*
D11*
%TO.P,D4,2,A*%
%TO.N,Net-(D4-A)*%
X99218750Y-126206250D03*
%TD*%
D12*
%TO.P,SW16,1,1*%
%TO.N,Net-(U1-GPIO6{slash}SDA)*%
X140335000Y-73501250D03*
%TO.P,SW16,2,2*%
%TO.N,Net-(D16-A)*%
X133985000Y-76041250D03*
%TD*%
D10*
%TO.P,D10,1,K*%
%TO.N,Net-(D10-K)*%
X144938750Y-126206250D03*
D11*
%TO.P,D10,2,A*%
%TO.N,Net-(D10-A)*%
X137318750Y-126206250D03*
%TD*%
D12*
%TO.P,SW4,1,1*%
%TO.N,Net-(U1-GPIO0{slash}TX)*%
X121285000Y-92551250D03*
%TO.P,SW4,2,2*%
%TO.N,Net-(D5-A)*%
X114935000Y-95091250D03*
%TD*%
%TO.P,SW1,1,1*%
%TO.N,Net-(U1-GPIO7{slash}SCL)*%
X102235000Y-92551250D03*
%TO.P,SW1,2,2*%
%TO.N,Net-(D2-A)*%
X95885000Y-95091250D03*
%TD*%
D10*
%TO.P,D16,1,K*%
%TO.N,Net-(D13-K)*%
X144938750Y-69056250D03*
D11*
%TO.P,D16,2,A*%
%TO.N,Net-(D16-A)*%
X137318750Y-69056250D03*
%TD*%
D13*
%TO.P,D13,1,K*%
%TO.N,Net-(D13-K)*%
X90000000Y-71000000D03*
D11*
%TO.P,D13,2,A*%
%TO.N,Net-(D13-A)*%
X90000000Y-78620000D03*
%TD*%
D10*
%TO.P,D12,1,K*%
%TO.N,Net-(D10-K)*%
X87788750Y-126206250D03*
D11*
%TO.P,D12,2,A*%
%TO.N,Net-(D12-A)*%
X80168750Y-126206250D03*
%TD*%
D10*
%TO.P,D5,1,K*%
%TO.N,Net-(D1-K)*%
X125888750Y-88106250D03*
D11*
%TO.P,D5,2,A*%
%TO.N,Net-(D5-A)*%
X118268750Y-88106250D03*
%TD*%
D12*
%TO.P,SW5,1,1*%
%TO.N,Net-(U1-GPIO0{slash}TX)*%
X121285000Y-111601250D03*
%TO.P,SW5,2,2*%
%TO.N,Net-(D6-A)*%
X114935000Y-114141250D03*
%TD*%
%TO.P,SW11,1,1*%
%TO.N,Net-(U1-GPIO29{slash}ADC3{slash}A3)*%
X83185000Y-111601250D03*
%TO.P,SW11,2,2*%
%TO.N,Net-(D11-A)*%
X76835000Y-114141250D03*
%TD*%
D14*
%TO.P,U1,1,GPIO26/ADC0/A0*%
%TO.N,Net-(D11-K)*%
X74066400Y-66090800D03*
%TO.P,U1,2,GPIO27/ADC1/A1*%
%TO.N,Net-(D1-K)*%
X76606400Y-66090800D03*
%TO.P,U1,3,GPIO28/ADC2/A2*%
%TO.N,Net-(D10-K)*%
X79146400Y-66090800D03*
%TO.P,U1,4,GPIO29/ADC3/A3*%
%TO.N,Net-(U1-GPIO29{slash}ADC3{slash}A3)*%
X81686400Y-66090800D03*
%TO.P,U1,5,GPIO6/SDA*%
%TO.N,Net-(U1-GPIO6{slash}SDA)*%
X84226400Y-66090800D03*
%TO.P,U1,6,GPIO7/SCL*%
%TO.N,Net-(U1-GPIO7{slash}SCL)*%
X86766400Y-66090800D03*
%TO.P,U1,7,GPIO0/TX*%
%TO.N,Net-(U1-GPIO0{slash}TX)*%
X89306400Y-66090800D03*
%TO.P,U1,8,GPIO1/RX*%
%TO.N,Net-(D13-K)*%
X89306400Y-50850800D03*
%TO.P,U1,9,GPIO2/SCK*%
%TO.N,unconnected-(U1-GPIO2{slash}SCK-Pad9)*%
X86766400Y-50850800D03*
%TO.P,U1,10,GPIO4/MISO*%
%TO.N,Net-(U1-GPIO4{slash}MISO)*%
X84226400Y-50850800D03*
%TO.P,U1,11,GPIO3/MOSI*%
%TO.N,Net-(U1-GPIO3{slash}MOSI)*%
X81686400Y-50850800D03*
%TO.P,U1,12,3V3*%
%TO.N,unconnected-(U1-3V3-Pad12)*%
X79146400Y-50850800D03*
%TO.P,U1,13,GND*%
%TO.N,Net-(U1-GND)*%
X76606400Y-50850800D03*
%TO.P,U1,14,VBUS*%
%TO.N,unconnected-(U1-VBUS-Pad14)*%
X74066400Y-50850800D03*
%TD*%
D12*
%TO.P,SW13,1,1*%
%TO.N,Net-(U1-GPIO29{slash}ADC3{slash}A3)*%
X83185000Y-73501250D03*
%TO.P,SW13,2,2*%
%TO.N,Net-(D13-A)*%
X76835000Y-76041250D03*
%TD*%
D10*
%TO.P,D8,1,K*%
%TO.N,Net-(D1-K)*%
X144938750Y-88106250D03*
D11*
%TO.P,D8,2,A*%
%TO.N,Net-(D8-A)*%
X137318750Y-88106250D03*
%TD*%
D10*
%TO.P,D7,1,K*%
%TO.N,Net-(D10-K)*%
X125888750Y-126206250D03*
D11*
%TO.P,D7,2,A*%
%TO.N,Net-(D7-A)*%
X118268750Y-126206250D03*
%TD*%
D12*
%TO.P,SW12,1,1*%
%TO.N,Net-(U1-GPIO29{slash}ADC3{slash}A3)*%
X83185000Y-130651250D03*
%TO.P,SW12,2,2*%
%TO.N,Net-(D12-A)*%
X76835000Y-133191250D03*
%TD*%
%TO.P,SW9,1,1*%
%TO.N,Net-(U1-GPIO6{slash}SDA)*%
X140335000Y-130651250D03*
%TO.P,SW9,2,2*%
%TO.N,Net-(D10-A)*%
X133985000Y-133191250D03*
%TD*%
%TO.P,SW8,1,1*%
%TO.N,Net-(U1-GPIO6{slash}SDA)*%
X140335000Y-111601250D03*
%TO.P,SW8,2,2*%
%TO.N,Net-(D9-A)*%
X133985000Y-114141250D03*
%TD*%
D10*
%TO.P,D2,1,K*%
%TO.N,Net-(D1-K)*%
X106838750Y-88106250D03*
D11*
%TO.P,D2,2,A*%
%TO.N,Net-(D2-A)*%
X99218750Y-88106250D03*
%TD*%
D12*
%TO.P,SW3,1,1*%
%TO.N,Net-(U1-GPIO7{slash}SCL)*%
X102235000Y-130651250D03*
%TO.P,SW3,2,2*%
%TO.N,Net-(D4-A)*%
X95885000Y-133191250D03*
%TD*%
%TO.P,SW7,1,1*%
%TO.N,Net-(U1-GPIO6{slash}SDA)*%
X140335000Y-92551250D03*
%TO.P,SW7,2,2*%
%TO.N,Net-(D8-A)*%
X133985000Y-95091250D03*
%TD*%
%TO.P,SW2,1,1*%
%TO.N,Net-(U1-GPIO7{slash}SCL)*%
X102235000Y-111601250D03*
%TO.P,SW2,2,2*%
%TO.N,Net-(D3-A)*%
X95885000Y-114141250D03*
%TD*%
D15*
%TO.P,SW17,A,A*%
%TO.N,Net-(U1-GPIO3{slash}MOSI)*%
X130737200Y-54500000D03*
D16*
%TO.P,SW17,B,B*%
%TO.N,Net-(U1-GPIO4{slash}MISO)*%
X130737200Y-59500000D03*
%TO.P,SW17,C,C*%
%TO.N,Net-(U1-GND)*%
X130737200Y-57000000D03*
D17*
%TO.P,SW17,MP*%
%TO.N,N/C*%
X138237200Y-51400000D03*
X138237200Y-62600000D03*
D16*
%TO.P,SW17,S1*%
X145237200Y-59500000D03*
%TO.P,SW17,S2*%
X145237200Y-54500000D03*
%TD*%
D12*
%TO.P,SW14,1,1*%
%TO.N,Net-(U1-GPIO7{slash}SCL)*%
X102235000Y-73501250D03*
%TO.P,SW14,2,2*%
%TO.N,Net-(D14-A)*%
X95885000Y-76041250D03*
%TD*%
%TO.P,SW15,1,1*%
%TO.N,Net-(U1-GPIO0{slash}TX)*%
X121285000Y-73501250D03*
%TO.P,SW15,2,2*%
%TO.N,Net-(D15-A)*%
X114935000Y-76041250D03*
%TD*%
%TO.P,SW10,1,1*%
%TO.N,Net-(U1-GPIO29{slash}ADC3{slash}A3)*%
X83185000Y-92551250D03*
%TO.P,SW10,2,2*%
%TO.N,Net-(D1-A)*%
X76835000Y-95091250D03*
%TD*%
D10*
%TO.P,D3,1,K*%
%TO.N,Net-(D11-K)*%
X106838750Y-107156250D03*
D11*
%TO.P,D3,2,A*%
%TO.N,Net-(D3-A)*%
X99218750Y-107156250D03*
%TD*%
D10*
%TO.P,D14,1,K*%
%TO.N,Net-(D13-K)*%
X106838750Y-69056250D03*
D11*
%TO.P,D14,2,A*%
%TO.N,Net-(D14-A)*%
X99218750Y-69056250D03*
%TD*%
D18*
%TO.N,Net-(D10-K)*%
X83765314Y-132052250D02*
X82604686Y-132052250D01*
X87788750Y-126206250D02*
X87788750Y-128028814D01*
X78294000Y-67756000D02*
X79146400Y-66903600D01*
X79146400Y-66903600D02*
X79146400Y-66090800D01*
X82604686Y-132052250D02*
X78294000Y-127741564D01*
X78294000Y-127741564D02*
X78294000Y-67756000D01*
X87788750Y-128028814D02*
X83765314Y-132052250D01*
%TO.N,Net-(U1-GPIO7{slash}SCL)*%
X102235000Y-92551250D02*
X102235000Y-73501250D01*
X102235000Y-73501250D02*
X89350850Y-73501250D01*
X86766400Y-70916800D02*
X86766400Y-66090800D01*
X102235000Y-130651250D02*
X102235000Y-111601250D01*
X89350850Y-73501250D02*
X86766400Y-70916800D01*
X102235000Y-111601250D02*
X102235000Y-92551250D01*
%TO.N,Net-(U1-GPIO6{slash}SDA)*%
X134543686Y-73501250D02*
X140335000Y-73501250D01*
X121865314Y-129250250D02*
X121865314Y-113002250D01*
X120704686Y-132052250D02*
X121865314Y-132052250D01*
X102815314Y-132052250D02*
X103636000Y-131231564D01*
X97344000Y-83698800D02*
X97344000Y-127741564D01*
X97344000Y-127741564D02*
X101654686Y-132052250D01*
X121865314Y-110200250D02*
X121865314Y-93952250D01*
X140335000Y-92551250D02*
X140335000Y-73501250D01*
X103636000Y-131231564D02*
X119884000Y-131231564D01*
X140335000Y-111601250D02*
X140335000Y-92551250D01*
X122686000Y-112181564D02*
X122686000Y-111020936D01*
X119884000Y-131231564D02*
X120704686Y-132052250D01*
X122686000Y-85358936D02*
X134543686Y-73501250D01*
X122686000Y-93131564D02*
X122686000Y-85358936D01*
X121865314Y-132052250D02*
X122686000Y-131231564D01*
X101654686Y-132052250D02*
X102815314Y-132052250D01*
X122686000Y-130070936D02*
X121865314Y-129250250D01*
X121865314Y-93952250D02*
X122686000Y-93131564D01*
X122686000Y-131231564D02*
X122686000Y-130070936D01*
X97344000Y-83698800D02*
X84226400Y-70581200D01*
X84226400Y-70581200D02*
X84226400Y-66090800D01*
X140335000Y-130651250D02*
X140335000Y-111601250D01*
X122686000Y-111020936D02*
X121865314Y-110200250D01*
X121865314Y-113002250D02*
X122686000Y-112181564D01*
%TO.N,Net-(U1-GPIO29{slash}ADC3{slash}A3)*%
X83185000Y-92551250D02*
X83185000Y-73501250D01*
X83185000Y-130651250D02*
X83185000Y-111601250D01*
X83185000Y-111601250D02*
X83185000Y-92551250D01*
%TO.N,Net-(U1-GPIO0{slash}TX)*%
X121285000Y-130651250D02*
X121285000Y-111601250D01*
X121285000Y-111601250D02*
X121285000Y-92551250D01*
X121285000Y-73501250D02*
X119884000Y-72100250D01*
X95315850Y-72100250D02*
X89306400Y-66090800D01*
X121285000Y-73501250D02*
X121285000Y-92551250D01*
X119884000Y-72100250D02*
X95315850Y-72100250D01*
%TD*%
M02*
