%TF.GenerationSoftware,KiCad,Pcbnew,9.0.6*%
%TF.CreationDate,2025-12-17T16:24:02+01:00*%
%TF.ProjectId,numpad,6e756d70-6164-42e6-9b69-6361645f7063,rev?*%
%TF.SameCoordinates,Original*%
%TF.FileFunction,Soldermask,Bot*%
%TF.FilePolarity,Negative*%
%FSLAX46Y46*%
G04 Gerber Fmt 4.6, Leading zero omitted, Abs format (unit mm)*
G04 Created by KiCad (PCBNEW 9.0.6) date 2025-12-17 16:24:02*
%MOMM*%
%LPD*%
G01*
G04 APERTURE LIST*
G04 Aperture macros list*
%AMRoundRect*
0 Rectangle with rounded corners*
0 $1 Rounding radius*
0 $2 $3 $4 $5 $6 $7 $8 $9 X,Y pos of 4 corners*
0 Add a 4 corners polygon primitive as box body*
4,1,4,$2,$3,$4,$5,$6,$7,$8,$9,$2,$3,0*
0 Add four circle primitives for the rounded corners*
1,1,$1+$1,$2,$3*
1,1,$1+$1,$4,$5*
1,1,$1+$1,$6,$7*
1,1,$1+$1,$8,$9*
0 Add four rect primitives between the rounded corners*
20,1,$1+$1,$2,$3,$4,$5,0*
20,1,$1+$1,$4,$5,$6,$7,0*
20,1,$1+$1,$6,$7,$8,$9,0*
20,1,$1+$1,$8,$9,$2,$3,0*%
G04 Aperture macros list end*
%ADD10RoundRect,0.250000X0.550000X0.550000X-0.550000X0.550000X-0.550000X-0.550000X0.550000X-0.550000X0*%
%ADD11C,1.600000*%
%ADD12C,1.700000*%
%ADD13C,4.000000*%
%ADD14C,2.200000*%
%ADD15RoundRect,0.250000X-0.550000X0.550000X-0.550000X-0.550000X0.550000X-0.550000X0.550000X0.550000X0*%
%ADD16C,1.524000*%
%ADD17R,2.000000X2.000000*%
%ADD18C,2.000000*%
%ADD19R,3.200000X2.000000*%
G04 APERTURE END LIST*
D10*
%TO.C,D1*%
X87788750Y-88106250D03*
D11*
X80168750Y-88106250D03*
%TD*%
D10*
%TO.C,D9*%
X144938750Y-107156250D03*
D11*
X137318750Y-107156250D03*
%TD*%
D12*
%TO.C,SW6*%
X113665000Y-135731250D03*
D13*
X118745000Y-135731250D03*
D12*
X123825000Y-135731250D03*
D14*
X121285000Y-130651250D03*
X114935000Y-133191250D03*
%TD*%
D10*
%TO.C,D11*%
X87788750Y-107156250D03*
D11*
X80168750Y-107156250D03*
%TD*%
D10*
%TO.C,D6*%
X125888750Y-107156250D03*
D11*
X118268750Y-107156250D03*
%TD*%
D10*
%TO.C,D15*%
X125888750Y-69056250D03*
D11*
X118268750Y-69056250D03*
%TD*%
D10*
%TO.C,D4*%
X106838750Y-126206250D03*
D11*
X99218750Y-126206250D03*
%TD*%
D12*
%TO.C,SW16*%
X132715000Y-78581250D03*
D13*
X137795000Y-78581250D03*
D12*
X142875000Y-78581250D03*
D14*
X140335000Y-73501250D03*
X133985000Y-76041250D03*
%TD*%
D10*
%TO.C,D10*%
X144938750Y-126206250D03*
D11*
X137318750Y-126206250D03*
%TD*%
D12*
%TO.C,SW4*%
X113665000Y-97631250D03*
D13*
X118745000Y-97631250D03*
D12*
X123825000Y-97631250D03*
D14*
X121285000Y-92551250D03*
X114935000Y-95091250D03*
%TD*%
D12*
%TO.C,SW1*%
X94615000Y-97631250D03*
D13*
X99695000Y-97631250D03*
D12*
X104775000Y-97631250D03*
D14*
X102235000Y-92551250D03*
X95885000Y-95091250D03*
%TD*%
D10*
%TO.C,D16*%
X144938750Y-69056250D03*
D11*
X137318750Y-69056250D03*
%TD*%
D15*
%TO.C,D13*%
X90000000Y-71000000D03*
D11*
X90000000Y-78620000D03*
%TD*%
D10*
%TO.C,D12*%
X87788750Y-126206250D03*
D11*
X80168750Y-126206250D03*
%TD*%
D10*
%TO.C,D5*%
X125888750Y-88106250D03*
D11*
X118268750Y-88106250D03*
%TD*%
D12*
%TO.C,SW5*%
X113665000Y-116681250D03*
D13*
X118745000Y-116681250D03*
D12*
X123825000Y-116681250D03*
D14*
X121285000Y-111601250D03*
X114935000Y-114141250D03*
%TD*%
D12*
%TO.C,SW11*%
X75565000Y-116681250D03*
D13*
X80645000Y-116681250D03*
D12*
X85725000Y-116681250D03*
D14*
X83185000Y-111601250D03*
X76835000Y-114141250D03*
%TD*%
D16*
%TO.C,U1*%
X74066400Y-66090800D03*
X76606400Y-66090800D03*
X79146400Y-66090800D03*
X81686400Y-66090800D03*
X84226400Y-66090800D03*
X86766400Y-66090800D03*
X89306400Y-66090800D03*
X89306400Y-50850800D03*
X86766400Y-50850800D03*
X84226400Y-50850800D03*
X81686400Y-50850800D03*
X79146400Y-50850800D03*
X76606400Y-50850800D03*
X74066400Y-50850800D03*
%TD*%
D12*
%TO.C,SW13*%
X75565000Y-78581250D03*
D13*
X80645000Y-78581250D03*
D12*
X85725000Y-78581250D03*
D14*
X83185000Y-73501250D03*
X76835000Y-76041250D03*
%TD*%
D10*
%TO.C,D8*%
X144938750Y-88106250D03*
D11*
X137318750Y-88106250D03*
%TD*%
D10*
%TO.C,D7*%
X125888750Y-126206250D03*
D11*
X118268750Y-126206250D03*
%TD*%
D12*
%TO.C,SW12*%
X75565000Y-135731250D03*
D13*
X80645000Y-135731250D03*
D12*
X85725000Y-135731250D03*
D14*
X83185000Y-130651250D03*
X76835000Y-133191250D03*
%TD*%
D12*
%TO.C,SW9*%
X132715000Y-135731250D03*
D13*
X137795000Y-135731250D03*
D12*
X142875000Y-135731250D03*
D14*
X140335000Y-130651250D03*
X133985000Y-133191250D03*
%TD*%
D12*
%TO.C,SW8*%
X132715000Y-116681250D03*
D13*
X137795000Y-116681250D03*
D12*
X142875000Y-116681250D03*
D14*
X140335000Y-111601250D03*
X133985000Y-114141250D03*
%TD*%
D10*
%TO.C,D2*%
X106838750Y-88106250D03*
D11*
X99218750Y-88106250D03*
%TD*%
D12*
%TO.C,SW3*%
X94615000Y-135731250D03*
D13*
X99695000Y-135731250D03*
D12*
X104775000Y-135731250D03*
D14*
X102235000Y-130651250D03*
X95885000Y-133191250D03*
%TD*%
D12*
%TO.C,SW7*%
X132715000Y-97631250D03*
D13*
X137795000Y-97631250D03*
D12*
X142875000Y-97631250D03*
D14*
X140335000Y-92551250D03*
X133985000Y-95091250D03*
%TD*%
D12*
%TO.C,SW2*%
X94615000Y-116681250D03*
D13*
X99695000Y-116681250D03*
D12*
X104775000Y-116681250D03*
D14*
X102235000Y-111601250D03*
X95885000Y-114141250D03*
%TD*%
D17*
%TO.C,SW17*%
X130737200Y-54500000D03*
D18*
X130737200Y-59500000D03*
X130737200Y-57000000D03*
D19*
X138237200Y-51400000D03*
X138237200Y-62600000D03*
D18*
X145237200Y-59500000D03*
X145237200Y-54500000D03*
%TD*%
D12*
%TO.C,SW14*%
X94615000Y-78581250D03*
D13*
X99695000Y-78581250D03*
D12*
X104775000Y-78581250D03*
D14*
X102235000Y-73501250D03*
X95885000Y-76041250D03*
%TD*%
D12*
%TO.C,SW15*%
X113665000Y-78581250D03*
D13*
X118745000Y-78581250D03*
D12*
X123825000Y-78581250D03*
D14*
X121285000Y-73501250D03*
X114935000Y-76041250D03*
%TD*%
D12*
%TO.C,SW10*%
X75565000Y-97631250D03*
D13*
X80645000Y-97631250D03*
D12*
X85725000Y-97631250D03*
D14*
X83185000Y-92551250D03*
X76835000Y-95091250D03*
%TD*%
D10*
%TO.C,D3*%
X106838750Y-107156250D03*
D11*
X99218750Y-107156250D03*
%TD*%
D10*
%TO.C,D14*%
X106838750Y-69056250D03*
D11*
X99218750Y-69056250D03*
%TD*%
M02*
