%TF.GenerationSoftware,KiCad,Pcbnew,9.0.6*%
%TF.CreationDate,2025-12-17T16:24:02+01:00*%
%TF.ProjectId,numpad,6e756d70-6164-42e6-9b69-6361645f7063,rev?*%
%TF.SameCoordinates,Original*%
%TF.FileFunction,Legend,Top*%
%TF.FilePolarity,Positive*%
%FSLAX46Y46*%
G04 Gerber Fmt 4.6, Leading zero omitted, Abs format (unit mm)*
G04 Created by KiCad (PCBNEW 9.0.6) date 2025-12-17 16:24:02*
%MOMM*%
%LPD*%
G01*
G04 APERTURE LIST*
%ADD10C,0.150000*%
%ADD11C,0.120000*%
%ADD12C,0.127000*%
%ADD13C,0.100000*%
%ADD14C,0.504000*%
G04 APERTURE END LIST*
D10*
X83793105Y-90421619D02*
X83793105Y-89421619D01*
X83793105Y-89421619D02*
X84031200Y-89421619D01*
X84031200Y-89421619D02*
X84174057Y-89469238D01*
X84174057Y-89469238D02*
X84269295Y-89564476D01*
X84269295Y-89564476D02*
X84316914Y-89659714D01*
X84316914Y-89659714D02*
X84364533Y-89850190D01*
X84364533Y-89850190D02*
X84364533Y-89993047D01*
X84364533Y-89993047D02*
X84316914Y-90183523D01*
X84316914Y-90183523D02*
X84269295Y-90278761D01*
X84269295Y-90278761D02*
X84174057Y-90374000D01*
X84174057Y-90374000D02*
X84031200Y-90421619D01*
X84031200Y-90421619D02*
X83793105Y-90421619D01*
X85316914Y-90421619D02*
X84745486Y-90421619D01*
X85031200Y-90421619D02*
X85031200Y-89421619D01*
X85031200Y-89421619D02*
X84935962Y-89564476D01*
X84935962Y-89564476D02*
X84840724Y-89659714D01*
X84840724Y-89659714D02*
X84745486Y-89707333D01*
X87526845Y-90361069D02*
X87526845Y-89361069D01*
X88098273Y-90361069D02*
X87669702Y-89789640D01*
X88098273Y-89361069D02*
X87526845Y-89932497D01*
X140638305Y-109522419D02*
X140638305Y-108522419D01*
X140638305Y-108522419D02*
X140876400Y-108522419D01*
X140876400Y-108522419D02*
X141019257Y-108570038D01*
X141019257Y-108570038D02*
X141114495Y-108665276D01*
X141114495Y-108665276D02*
X141162114Y-108760514D01*
X141162114Y-108760514D02*
X141209733Y-108950990D01*
X141209733Y-108950990D02*
X141209733Y-109093847D01*
X141209733Y-109093847D02*
X141162114Y-109284323D01*
X141162114Y-109284323D02*
X141114495Y-109379561D01*
X141114495Y-109379561D02*
X141019257Y-109474800D01*
X141019257Y-109474800D02*
X140876400Y-109522419D01*
X140876400Y-109522419D02*
X140638305Y-109522419D01*
X141685924Y-109522419D02*
X141876400Y-109522419D01*
X141876400Y-109522419D02*
X141971638Y-109474800D01*
X141971638Y-109474800D02*
X142019257Y-109427180D01*
X142019257Y-109427180D02*
X142114495Y-109284323D01*
X142114495Y-109284323D02*
X142162114Y-109093847D01*
X142162114Y-109093847D02*
X142162114Y-108712895D01*
X142162114Y-108712895D02*
X142114495Y-108617657D01*
X142114495Y-108617657D02*
X142066876Y-108570038D01*
X142066876Y-108570038D02*
X141971638Y-108522419D01*
X141971638Y-108522419D02*
X141781162Y-108522419D01*
X141781162Y-108522419D02*
X141685924Y-108570038D01*
X141685924Y-108570038D02*
X141638305Y-108617657D01*
X141638305Y-108617657D02*
X141590686Y-108712895D01*
X141590686Y-108712895D02*
X141590686Y-108950990D01*
X141590686Y-108950990D02*
X141638305Y-109046228D01*
X141638305Y-109046228D02*
X141685924Y-109093847D01*
X141685924Y-109093847D02*
X141781162Y-109141466D01*
X141781162Y-109141466D02*
X141971638Y-109141466D01*
X141971638Y-109141466D02*
X142066876Y-109093847D01*
X142066876Y-109093847D02*
X142114495Y-109046228D01*
X142114495Y-109046228D02*
X142162114Y-108950990D01*
X144676845Y-109411069D02*
X144676845Y-108411069D01*
X145248273Y-109411069D02*
X144819702Y-108839640D01*
X145248273Y-108411069D02*
X144676845Y-108982497D01*
X117284667Y-128524800D02*
X117427524Y-128572419D01*
X117427524Y-128572419D02*
X117665619Y-128572419D01*
X117665619Y-128572419D02*
X117760857Y-128524800D01*
X117760857Y-128524800D02*
X117808476Y-128477180D01*
X117808476Y-128477180D02*
X117856095Y-128381942D01*
X117856095Y-128381942D02*
X117856095Y-128286704D01*
X117856095Y-128286704D02*
X117808476Y-128191466D01*
X117808476Y-128191466D02*
X117760857Y-128143847D01*
X117760857Y-128143847D02*
X117665619Y-128096228D01*
X117665619Y-128096228D02*
X117475143Y-128048609D01*
X117475143Y-128048609D02*
X117379905Y-128000990D01*
X117379905Y-128000990D02*
X117332286Y-127953371D01*
X117332286Y-127953371D02*
X117284667Y-127858133D01*
X117284667Y-127858133D02*
X117284667Y-127762895D01*
X117284667Y-127762895D02*
X117332286Y-127667657D01*
X117332286Y-127667657D02*
X117379905Y-127620038D01*
X117379905Y-127620038D02*
X117475143Y-127572419D01*
X117475143Y-127572419D02*
X117713238Y-127572419D01*
X117713238Y-127572419D02*
X117856095Y-127620038D01*
X118189429Y-127572419D02*
X118427524Y-128572419D01*
X118427524Y-128572419D02*
X118618000Y-127858133D01*
X118618000Y-127858133D02*
X118808476Y-128572419D01*
X118808476Y-128572419D02*
X119046572Y-127572419D01*
X119856095Y-127572419D02*
X119665619Y-127572419D01*
X119665619Y-127572419D02*
X119570381Y-127620038D01*
X119570381Y-127620038D02*
X119522762Y-127667657D01*
X119522762Y-127667657D02*
X119427524Y-127810514D01*
X119427524Y-127810514D02*
X119379905Y-128000990D01*
X119379905Y-128000990D02*
X119379905Y-128381942D01*
X119379905Y-128381942D02*
X119427524Y-128477180D01*
X119427524Y-128477180D02*
X119475143Y-128524800D01*
X119475143Y-128524800D02*
X119570381Y-128572419D01*
X119570381Y-128572419D02*
X119760857Y-128572419D01*
X119760857Y-128572419D02*
X119856095Y-128524800D01*
X119856095Y-128524800D02*
X119903714Y-128477180D01*
X119903714Y-128477180D02*
X119951333Y-128381942D01*
X119951333Y-128381942D02*
X119951333Y-128143847D01*
X119951333Y-128143847D02*
X119903714Y-128048609D01*
X119903714Y-128048609D02*
X119856095Y-128000990D01*
X119856095Y-128000990D02*
X119760857Y-127953371D01*
X119760857Y-127953371D02*
X119570381Y-127953371D01*
X119570381Y-127953371D02*
X119475143Y-128000990D01*
X119475143Y-128000990D02*
X119427524Y-128048609D01*
X119427524Y-128048609D02*
X119379905Y-128143847D01*
X83520114Y-109471619D02*
X83520114Y-108471619D01*
X83520114Y-108471619D02*
X83758209Y-108471619D01*
X83758209Y-108471619D02*
X83901066Y-108519238D01*
X83901066Y-108519238D02*
X83996304Y-108614476D01*
X83996304Y-108614476D02*
X84043923Y-108709714D01*
X84043923Y-108709714D02*
X84091542Y-108900190D01*
X84091542Y-108900190D02*
X84091542Y-109043047D01*
X84091542Y-109043047D02*
X84043923Y-109233523D01*
X84043923Y-109233523D02*
X83996304Y-109328761D01*
X83996304Y-109328761D02*
X83901066Y-109424000D01*
X83901066Y-109424000D02*
X83758209Y-109471619D01*
X83758209Y-109471619D02*
X83520114Y-109471619D01*
X85043923Y-109471619D02*
X84472495Y-109471619D01*
X84758209Y-109471619D02*
X84758209Y-108471619D01*
X84758209Y-108471619D02*
X84662971Y-108614476D01*
X84662971Y-108614476D02*
X84567733Y-108709714D01*
X84567733Y-108709714D02*
X84472495Y-108757333D01*
X85996304Y-109471619D02*
X85424876Y-109471619D01*
X85710590Y-109471619D02*
X85710590Y-108471619D01*
X85710590Y-108471619D02*
X85615352Y-108614476D01*
X85615352Y-108614476D02*
X85520114Y-108709714D01*
X85520114Y-108709714D02*
X85424876Y-108757333D01*
X87526845Y-109411069D02*
X87526845Y-108411069D01*
X88098273Y-109411069D02*
X87669702Y-108839640D01*
X88098273Y-108411069D02*
X87526845Y-108982497D01*
X122604305Y-109471619D02*
X122604305Y-108471619D01*
X122604305Y-108471619D02*
X122842400Y-108471619D01*
X122842400Y-108471619D02*
X122985257Y-108519238D01*
X122985257Y-108519238D02*
X123080495Y-108614476D01*
X123080495Y-108614476D02*
X123128114Y-108709714D01*
X123128114Y-108709714D02*
X123175733Y-108900190D01*
X123175733Y-108900190D02*
X123175733Y-109043047D01*
X123175733Y-109043047D02*
X123128114Y-109233523D01*
X123128114Y-109233523D02*
X123080495Y-109328761D01*
X123080495Y-109328761D02*
X122985257Y-109424000D01*
X122985257Y-109424000D02*
X122842400Y-109471619D01*
X122842400Y-109471619D02*
X122604305Y-109471619D01*
X124032876Y-108471619D02*
X123842400Y-108471619D01*
X123842400Y-108471619D02*
X123747162Y-108519238D01*
X123747162Y-108519238D02*
X123699543Y-108566857D01*
X123699543Y-108566857D02*
X123604305Y-108709714D01*
X123604305Y-108709714D02*
X123556686Y-108900190D01*
X123556686Y-108900190D02*
X123556686Y-109281142D01*
X123556686Y-109281142D02*
X123604305Y-109376380D01*
X123604305Y-109376380D02*
X123651924Y-109424000D01*
X123651924Y-109424000D02*
X123747162Y-109471619D01*
X123747162Y-109471619D02*
X123937638Y-109471619D01*
X123937638Y-109471619D02*
X124032876Y-109424000D01*
X124032876Y-109424000D02*
X124080495Y-109376380D01*
X124080495Y-109376380D02*
X124128114Y-109281142D01*
X124128114Y-109281142D02*
X124128114Y-109043047D01*
X124128114Y-109043047D02*
X124080495Y-108947809D01*
X124080495Y-108947809D02*
X124032876Y-108900190D01*
X124032876Y-108900190D02*
X123937638Y-108852571D01*
X123937638Y-108852571D02*
X123747162Y-108852571D01*
X123747162Y-108852571D02*
X123651924Y-108900190D01*
X123651924Y-108900190D02*
X123604305Y-108947809D01*
X123604305Y-108947809D02*
X123556686Y-109043047D01*
X125626845Y-109411069D02*
X125626845Y-108411069D01*
X126198273Y-109411069D02*
X125769702Y-108839640D01*
X126198273Y-108411069D02*
X125626845Y-108982497D01*
X120908914Y-71371619D02*
X120908914Y-70371619D01*
X120908914Y-70371619D02*
X121147009Y-70371619D01*
X121147009Y-70371619D02*
X121289866Y-70419238D01*
X121289866Y-70419238D02*
X121385104Y-70514476D01*
X121385104Y-70514476D02*
X121432723Y-70609714D01*
X121432723Y-70609714D02*
X121480342Y-70800190D01*
X121480342Y-70800190D02*
X121480342Y-70943047D01*
X121480342Y-70943047D02*
X121432723Y-71133523D01*
X121432723Y-71133523D02*
X121385104Y-71228761D01*
X121385104Y-71228761D02*
X121289866Y-71324000D01*
X121289866Y-71324000D02*
X121147009Y-71371619D01*
X121147009Y-71371619D02*
X120908914Y-71371619D01*
X122432723Y-71371619D02*
X121861295Y-71371619D01*
X122147009Y-71371619D02*
X122147009Y-70371619D01*
X122147009Y-70371619D02*
X122051771Y-70514476D01*
X122051771Y-70514476D02*
X121956533Y-70609714D01*
X121956533Y-70609714D02*
X121861295Y-70657333D01*
X123337485Y-70371619D02*
X122861295Y-70371619D01*
X122861295Y-70371619D02*
X122813676Y-70847809D01*
X122813676Y-70847809D02*
X122861295Y-70800190D01*
X122861295Y-70800190D02*
X122956533Y-70752571D01*
X122956533Y-70752571D02*
X123194628Y-70752571D01*
X123194628Y-70752571D02*
X123289866Y-70800190D01*
X123289866Y-70800190D02*
X123337485Y-70847809D01*
X123337485Y-70847809D02*
X123385104Y-70943047D01*
X123385104Y-70943047D02*
X123385104Y-71181142D01*
X123385104Y-71181142D02*
X123337485Y-71276380D01*
X123337485Y-71276380D02*
X123289866Y-71324000D01*
X123289866Y-71324000D02*
X123194628Y-71371619D01*
X123194628Y-71371619D02*
X122956533Y-71371619D01*
X122956533Y-71371619D02*
X122861295Y-71324000D01*
X122861295Y-71324000D02*
X122813676Y-71276380D01*
X125626845Y-71311069D02*
X125626845Y-70311069D01*
X126198273Y-71311069D02*
X125769702Y-70739640D01*
X126198273Y-70311069D02*
X125626845Y-70882497D01*
X102538305Y-128572419D02*
X102538305Y-127572419D01*
X102538305Y-127572419D02*
X102776400Y-127572419D01*
X102776400Y-127572419D02*
X102919257Y-127620038D01*
X102919257Y-127620038D02*
X103014495Y-127715276D01*
X103014495Y-127715276D02*
X103062114Y-127810514D01*
X103062114Y-127810514D02*
X103109733Y-128000990D01*
X103109733Y-128000990D02*
X103109733Y-128143847D01*
X103109733Y-128143847D02*
X103062114Y-128334323D01*
X103062114Y-128334323D02*
X103014495Y-128429561D01*
X103014495Y-128429561D02*
X102919257Y-128524800D01*
X102919257Y-128524800D02*
X102776400Y-128572419D01*
X102776400Y-128572419D02*
X102538305Y-128572419D01*
X103966876Y-127905752D02*
X103966876Y-128572419D01*
X103728781Y-127524800D02*
X103490686Y-128239085D01*
X103490686Y-128239085D02*
X104109733Y-128239085D01*
X106576845Y-128461069D02*
X106576845Y-127461069D01*
X107148273Y-128461069D02*
X106719702Y-127889640D01*
X107148273Y-127461069D02*
X106576845Y-128032497D01*
X135553676Y-71273200D02*
X135696533Y-71320819D01*
X135696533Y-71320819D02*
X135934628Y-71320819D01*
X135934628Y-71320819D02*
X136029866Y-71273200D01*
X136029866Y-71273200D02*
X136077485Y-71225580D01*
X136077485Y-71225580D02*
X136125104Y-71130342D01*
X136125104Y-71130342D02*
X136125104Y-71035104D01*
X136125104Y-71035104D02*
X136077485Y-70939866D01*
X136077485Y-70939866D02*
X136029866Y-70892247D01*
X136029866Y-70892247D02*
X135934628Y-70844628D01*
X135934628Y-70844628D02*
X135744152Y-70797009D01*
X135744152Y-70797009D02*
X135648914Y-70749390D01*
X135648914Y-70749390D02*
X135601295Y-70701771D01*
X135601295Y-70701771D02*
X135553676Y-70606533D01*
X135553676Y-70606533D02*
X135553676Y-70511295D01*
X135553676Y-70511295D02*
X135601295Y-70416057D01*
X135601295Y-70416057D02*
X135648914Y-70368438D01*
X135648914Y-70368438D02*
X135744152Y-70320819D01*
X135744152Y-70320819D02*
X135982247Y-70320819D01*
X135982247Y-70320819D02*
X136125104Y-70368438D01*
X136458438Y-70320819D02*
X136696533Y-71320819D01*
X136696533Y-71320819D02*
X136887009Y-70606533D01*
X136887009Y-70606533D02*
X137077485Y-71320819D01*
X137077485Y-71320819D02*
X137315581Y-70320819D01*
X138220342Y-71320819D02*
X137648914Y-71320819D01*
X137934628Y-71320819D02*
X137934628Y-70320819D01*
X137934628Y-70320819D02*
X137839390Y-70463676D01*
X137839390Y-70463676D02*
X137744152Y-70558914D01*
X137744152Y-70558914D02*
X137648914Y-70606533D01*
X139077485Y-70320819D02*
X138887009Y-70320819D01*
X138887009Y-70320819D02*
X138791771Y-70368438D01*
X138791771Y-70368438D02*
X138744152Y-70416057D01*
X138744152Y-70416057D02*
X138648914Y-70558914D01*
X138648914Y-70558914D02*
X138601295Y-70749390D01*
X138601295Y-70749390D02*
X138601295Y-71130342D01*
X138601295Y-71130342D02*
X138648914Y-71225580D01*
X138648914Y-71225580D02*
X138696533Y-71273200D01*
X138696533Y-71273200D02*
X138791771Y-71320819D01*
X138791771Y-71320819D02*
X138982247Y-71320819D01*
X138982247Y-71320819D02*
X139077485Y-71273200D01*
X139077485Y-71273200D02*
X139125104Y-71225580D01*
X139125104Y-71225580D02*
X139172723Y-71130342D01*
X139172723Y-71130342D02*
X139172723Y-70892247D01*
X139172723Y-70892247D02*
X139125104Y-70797009D01*
X139125104Y-70797009D02*
X139077485Y-70749390D01*
X139077485Y-70749390D02*
X138982247Y-70701771D01*
X138982247Y-70701771D02*
X138791771Y-70701771D01*
X138791771Y-70701771D02*
X138696533Y-70749390D01*
X138696533Y-70749390D02*
X138648914Y-70797009D01*
X138648914Y-70797009D02*
X138601295Y-70892247D01*
X140822514Y-128572419D02*
X140822514Y-127572419D01*
X140822514Y-127572419D02*
X141060609Y-127572419D01*
X141060609Y-127572419D02*
X141203466Y-127620038D01*
X141203466Y-127620038D02*
X141298704Y-127715276D01*
X141298704Y-127715276D02*
X141346323Y-127810514D01*
X141346323Y-127810514D02*
X141393942Y-128000990D01*
X141393942Y-128000990D02*
X141393942Y-128143847D01*
X141393942Y-128143847D02*
X141346323Y-128334323D01*
X141346323Y-128334323D02*
X141298704Y-128429561D01*
X141298704Y-128429561D02*
X141203466Y-128524800D01*
X141203466Y-128524800D02*
X141060609Y-128572419D01*
X141060609Y-128572419D02*
X140822514Y-128572419D01*
X142346323Y-128572419D02*
X141774895Y-128572419D01*
X142060609Y-128572419D02*
X142060609Y-127572419D01*
X142060609Y-127572419D02*
X141965371Y-127715276D01*
X141965371Y-127715276D02*
X141870133Y-127810514D01*
X141870133Y-127810514D02*
X141774895Y-127858133D01*
X142965371Y-127572419D02*
X143060609Y-127572419D01*
X143060609Y-127572419D02*
X143155847Y-127620038D01*
X143155847Y-127620038D02*
X143203466Y-127667657D01*
X143203466Y-127667657D02*
X143251085Y-127762895D01*
X143251085Y-127762895D02*
X143298704Y-127953371D01*
X143298704Y-127953371D02*
X143298704Y-128191466D01*
X143298704Y-128191466D02*
X143251085Y-128381942D01*
X143251085Y-128381942D02*
X143203466Y-128477180D01*
X143203466Y-128477180D02*
X143155847Y-128524800D01*
X143155847Y-128524800D02*
X143060609Y-128572419D01*
X143060609Y-128572419D02*
X142965371Y-128572419D01*
X142965371Y-128572419D02*
X142870133Y-128524800D01*
X142870133Y-128524800D02*
X142822514Y-128477180D01*
X142822514Y-128477180D02*
X142774895Y-128381942D01*
X142774895Y-128381942D02*
X142727276Y-128191466D01*
X142727276Y-128191466D02*
X142727276Y-127953371D01*
X142727276Y-127953371D02*
X142774895Y-127762895D01*
X142774895Y-127762895D02*
X142822514Y-127667657D01*
X142822514Y-127667657D02*
X142870133Y-127620038D01*
X142870133Y-127620038D02*
X142965371Y-127572419D01*
X144676845Y-128461069D02*
X144676845Y-127461069D01*
X145248273Y-128461069D02*
X144819702Y-127889640D01*
X145248273Y-127461069D02*
X144676845Y-128032497D01*
X114490667Y-90424800D02*
X114633524Y-90472419D01*
X114633524Y-90472419D02*
X114871619Y-90472419D01*
X114871619Y-90472419D02*
X114966857Y-90424800D01*
X114966857Y-90424800D02*
X115014476Y-90377180D01*
X115014476Y-90377180D02*
X115062095Y-90281942D01*
X115062095Y-90281942D02*
X115062095Y-90186704D01*
X115062095Y-90186704D02*
X115014476Y-90091466D01*
X115014476Y-90091466D02*
X114966857Y-90043847D01*
X114966857Y-90043847D02*
X114871619Y-89996228D01*
X114871619Y-89996228D02*
X114681143Y-89948609D01*
X114681143Y-89948609D02*
X114585905Y-89900990D01*
X114585905Y-89900990D02*
X114538286Y-89853371D01*
X114538286Y-89853371D02*
X114490667Y-89758133D01*
X114490667Y-89758133D02*
X114490667Y-89662895D01*
X114490667Y-89662895D02*
X114538286Y-89567657D01*
X114538286Y-89567657D02*
X114585905Y-89520038D01*
X114585905Y-89520038D02*
X114681143Y-89472419D01*
X114681143Y-89472419D02*
X114919238Y-89472419D01*
X114919238Y-89472419D02*
X115062095Y-89520038D01*
X115395429Y-89472419D02*
X115633524Y-90472419D01*
X115633524Y-90472419D02*
X115824000Y-89758133D01*
X115824000Y-89758133D02*
X116014476Y-90472419D01*
X116014476Y-90472419D02*
X116252572Y-89472419D01*
X117062095Y-89805752D02*
X117062095Y-90472419D01*
X116824000Y-89424800D02*
X116585905Y-90139085D01*
X116585905Y-90139085D02*
X117204952Y-90139085D01*
X99403067Y-90374000D02*
X99545924Y-90421619D01*
X99545924Y-90421619D02*
X99784019Y-90421619D01*
X99784019Y-90421619D02*
X99879257Y-90374000D01*
X99879257Y-90374000D02*
X99926876Y-90326380D01*
X99926876Y-90326380D02*
X99974495Y-90231142D01*
X99974495Y-90231142D02*
X99974495Y-90135904D01*
X99974495Y-90135904D02*
X99926876Y-90040666D01*
X99926876Y-90040666D02*
X99879257Y-89993047D01*
X99879257Y-89993047D02*
X99784019Y-89945428D01*
X99784019Y-89945428D02*
X99593543Y-89897809D01*
X99593543Y-89897809D02*
X99498305Y-89850190D01*
X99498305Y-89850190D02*
X99450686Y-89802571D01*
X99450686Y-89802571D02*
X99403067Y-89707333D01*
X99403067Y-89707333D02*
X99403067Y-89612095D01*
X99403067Y-89612095D02*
X99450686Y-89516857D01*
X99450686Y-89516857D02*
X99498305Y-89469238D01*
X99498305Y-89469238D02*
X99593543Y-89421619D01*
X99593543Y-89421619D02*
X99831638Y-89421619D01*
X99831638Y-89421619D02*
X99974495Y-89469238D01*
X100307829Y-89421619D02*
X100545924Y-90421619D01*
X100545924Y-90421619D02*
X100736400Y-89707333D01*
X100736400Y-89707333D02*
X100926876Y-90421619D01*
X100926876Y-90421619D02*
X101164972Y-89421619D01*
X102069733Y-90421619D02*
X101498305Y-90421619D01*
X101784019Y-90421619D02*
X101784019Y-89421619D01*
X101784019Y-89421619D02*
X101688781Y-89564476D01*
X101688781Y-89564476D02*
X101593543Y-89659714D01*
X101593543Y-89659714D02*
X101498305Y-89707333D01*
X139908114Y-71371619D02*
X139908114Y-70371619D01*
X139908114Y-70371619D02*
X140146209Y-70371619D01*
X140146209Y-70371619D02*
X140289066Y-70419238D01*
X140289066Y-70419238D02*
X140384304Y-70514476D01*
X140384304Y-70514476D02*
X140431923Y-70609714D01*
X140431923Y-70609714D02*
X140479542Y-70800190D01*
X140479542Y-70800190D02*
X140479542Y-70943047D01*
X140479542Y-70943047D02*
X140431923Y-71133523D01*
X140431923Y-71133523D02*
X140384304Y-71228761D01*
X140384304Y-71228761D02*
X140289066Y-71324000D01*
X140289066Y-71324000D02*
X140146209Y-71371619D01*
X140146209Y-71371619D02*
X139908114Y-71371619D01*
X141431923Y-71371619D02*
X140860495Y-71371619D01*
X141146209Y-71371619D02*
X141146209Y-70371619D01*
X141146209Y-70371619D02*
X141050971Y-70514476D01*
X141050971Y-70514476D02*
X140955733Y-70609714D01*
X140955733Y-70609714D02*
X140860495Y-70657333D01*
X142289066Y-70371619D02*
X142098590Y-70371619D01*
X142098590Y-70371619D02*
X142003352Y-70419238D01*
X142003352Y-70419238D02*
X141955733Y-70466857D01*
X141955733Y-70466857D02*
X141860495Y-70609714D01*
X141860495Y-70609714D02*
X141812876Y-70800190D01*
X141812876Y-70800190D02*
X141812876Y-71181142D01*
X141812876Y-71181142D02*
X141860495Y-71276380D01*
X141860495Y-71276380D02*
X141908114Y-71324000D01*
X141908114Y-71324000D02*
X142003352Y-71371619D01*
X142003352Y-71371619D02*
X142193828Y-71371619D01*
X142193828Y-71371619D02*
X142289066Y-71324000D01*
X142289066Y-71324000D02*
X142336685Y-71276380D01*
X142336685Y-71276380D02*
X142384304Y-71181142D01*
X142384304Y-71181142D02*
X142384304Y-70943047D01*
X142384304Y-70943047D02*
X142336685Y-70847809D01*
X142336685Y-70847809D02*
X142289066Y-70800190D01*
X142289066Y-70800190D02*
X142193828Y-70752571D01*
X142193828Y-70752571D02*
X142003352Y-70752571D01*
X142003352Y-70752571D02*
X141908114Y-70800190D01*
X141908114Y-70800190D02*
X141860495Y-70847809D01*
X141860495Y-70847809D02*
X141812876Y-70943047D01*
X144676845Y-71311069D02*
X144676845Y-70311069D01*
X145248273Y-71311069D02*
X144819702Y-70739640D01*
X145248273Y-70311069D02*
X144676845Y-70882497D01*
X92574819Y-76024285D02*
X91574819Y-76024285D01*
X91574819Y-76024285D02*
X91574819Y-75786190D01*
X91574819Y-75786190D02*
X91622438Y-75643333D01*
X91622438Y-75643333D02*
X91717676Y-75548095D01*
X91717676Y-75548095D02*
X91812914Y-75500476D01*
X91812914Y-75500476D02*
X92003390Y-75452857D01*
X92003390Y-75452857D02*
X92146247Y-75452857D01*
X92146247Y-75452857D02*
X92336723Y-75500476D01*
X92336723Y-75500476D02*
X92431961Y-75548095D01*
X92431961Y-75548095D02*
X92527200Y-75643333D01*
X92527200Y-75643333D02*
X92574819Y-75786190D01*
X92574819Y-75786190D02*
X92574819Y-76024285D01*
X92574819Y-74500476D02*
X92574819Y-75071904D01*
X92574819Y-74786190D02*
X91574819Y-74786190D01*
X91574819Y-74786190D02*
X91717676Y-74881428D01*
X91717676Y-74881428D02*
X91812914Y-74976666D01*
X91812914Y-74976666D02*
X91860533Y-75071904D01*
X91574819Y-74167142D02*
X91574819Y-73548095D01*
X91574819Y-73548095D02*
X91955771Y-73881428D01*
X91955771Y-73881428D02*
X91955771Y-73738571D01*
X91955771Y-73738571D02*
X92003390Y-73643333D01*
X92003390Y-73643333D02*
X92051009Y-73595714D01*
X92051009Y-73595714D02*
X92146247Y-73548095D01*
X92146247Y-73548095D02*
X92384342Y-73548095D01*
X92384342Y-73548095D02*
X92479580Y-73595714D01*
X92479580Y-73595714D02*
X92527200Y-73643333D01*
X92527200Y-73643333D02*
X92574819Y-73738571D01*
X92574819Y-73738571D02*
X92574819Y-74024285D01*
X92574819Y-74024285D02*
X92527200Y-74119523D01*
X92527200Y-74119523D02*
X92479580Y-74167142D01*
X92254819Y-71261904D02*
X91254819Y-71261904D01*
X92254819Y-70690476D02*
X91683390Y-71119047D01*
X91254819Y-70690476D02*
X91826247Y-71261904D01*
X82453314Y-128521619D02*
X82453314Y-127521619D01*
X82453314Y-127521619D02*
X82691409Y-127521619D01*
X82691409Y-127521619D02*
X82834266Y-127569238D01*
X82834266Y-127569238D02*
X82929504Y-127664476D01*
X82929504Y-127664476D02*
X82977123Y-127759714D01*
X82977123Y-127759714D02*
X83024742Y-127950190D01*
X83024742Y-127950190D02*
X83024742Y-128093047D01*
X83024742Y-128093047D02*
X82977123Y-128283523D01*
X82977123Y-128283523D02*
X82929504Y-128378761D01*
X82929504Y-128378761D02*
X82834266Y-128474000D01*
X82834266Y-128474000D02*
X82691409Y-128521619D01*
X82691409Y-128521619D02*
X82453314Y-128521619D01*
X83977123Y-128521619D02*
X83405695Y-128521619D01*
X83691409Y-128521619D02*
X83691409Y-127521619D01*
X83691409Y-127521619D02*
X83596171Y-127664476D01*
X83596171Y-127664476D02*
X83500933Y-127759714D01*
X83500933Y-127759714D02*
X83405695Y-127807333D01*
X84358076Y-127616857D02*
X84405695Y-127569238D01*
X84405695Y-127569238D02*
X84500933Y-127521619D01*
X84500933Y-127521619D02*
X84739028Y-127521619D01*
X84739028Y-127521619D02*
X84834266Y-127569238D01*
X84834266Y-127569238D02*
X84881885Y-127616857D01*
X84881885Y-127616857D02*
X84929504Y-127712095D01*
X84929504Y-127712095D02*
X84929504Y-127807333D01*
X84929504Y-127807333D02*
X84881885Y-127950190D01*
X84881885Y-127950190D02*
X84310457Y-128521619D01*
X84310457Y-128521619D02*
X84929504Y-128521619D01*
X87526845Y-128461069D02*
X87526845Y-127461069D01*
X88098273Y-128461069D02*
X87669702Y-127889640D01*
X88098273Y-127461069D02*
X87526845Y-128032497D01*
X123315505Y-90421619D02*
X123315505Y-89421619D01*
X123315505Y-89421619D02*
X123553600Y-89421619D01*
X123553600Y-89421619D02*
X123696457Y-89469238D01*
X123696457Y-89469238D02*
X123791695Y-89564476D01*
X123791695Y-89564476D02*
X123839314Y-89659714D01*
X123839314Y-89659714D02*
X123886933Y-89850190D01*
X123886933Y-89850190D02*
X123886933Y-89993047D01*
X123886933Y-89993047D02*
X123839314Y-90183523D01*
X123839314Y-90183523D02*
X123791695Y-90278761D01*
X123791695Y-90278761D02*
X123696457Y-90374000D01*
X123696457Y-90374000D02*
X123553600Y-90421619D01*
X123553600Y-90421619D02*
X123315505Y-90421619D01*
X124791695Y-89421619D02*
X124315505Y-89421619D01*
X124315505Y-89421619D02*
X124267886Y-89897809D01*
X124267886Y-89897809D02*
X124315505Y-89850190D01*
X124315505Y-89850190D02*
X124410743Y-89802571D01*
X124410743Y-89802571D02*
X124648838Y-89802571D01*
X124648838Y-89802571D02*
X124744076Y-89850190D01*
X124744076Y-89850190D02*
X124791695Y-89897809D01*
X124791695Y-89897809D02*
X124839314Y-89993047D01*
X124839314Y-89993047D02*
X124839314Y-90231142D01*
X124839314Y-90231142D02*
X124791695Y-90326380D01*
X124791695Y-90326380D02*
X124744076Y-90374000D01*
X124744076Y-90374000D02*
X124648838Y-90421619D01*
X124648838Y-90421619D02*
X124410743Y-90421619D01*
X124410743Y-90421619D02*
X124315505Y-90374000D01*
X124315505Y-90374000D02*
X124267886Y-90326380D01*
X125626845Y-90361069D02*
X125626845Y-89361069D01*
X126198273Y-90361069D02*
X125769702Y-89789640D01*
X126198273Y-89361069D02*
X125626845Y-89932497D01*
X114439867Y-109373200D02*
X114582724Y-109420819D01*
X114582724Y-109420819D02*
X114820819Y-109420819D01*
X114820819Y-109420819D02*
X114916057Y-109373200D01*
X114916057Y-109373200D02*
X114963676Y-109325580D01*
X114963676Y-109325580D02*
X115011295Y-109230342D01*
X115011295Y-109230342D02*
X115011295Y-109135104D01*
X115011295Y-109135104D02*
X114963676Y-109039866D01*
X114963676Y-109039866D02*
X114916057Y-108992247D01*
X114916057Y-108992247D02*
X114820819Y-108944628D01*
X114820819Y-108944628D02*
X114630343Y-108897009D01*
X114630343Y-108897009D02*
X114535105Y-108849390D01*
X114535105Y-108849390D02*
X114487486Y-108801771D01*
X114487486Y-108801771D02*
X114439867Y-108706533D01*
X114439867Y-108706533D02*
X114439867Y-108611295D01*
X114439867Y-108611295D02*
X114487486Y-108516057D01*
X114487486Y-108516057D02*
X114535105Y-108468438D01*
X114535105Y-108468438D02*
X114630343Y-108420819D01*
X114630343Y-108420819D02*
X114868438Y-108420819D01*
X114868438Y-108420819D02*
X115011295Y-108468438D01*
X115344629Y-108420819D02*
X115582724Y-109420819D01*
X115582724Y-109420819D02*
X115773200Y-108706533D01*
X115773200Y-108706533D02*
X115963676Y-109420819D01*
X115963676Y-109420819D02*
X116201772Y-108420819D01*
X117058914Y-108420819D02*
X116582724Y-108420819D01*
X116582724Y-108420819D02*
X116535105Y-108897009D01*
X116535105Y-108897009D02*
X116582724Y-108849390D01*
X116582724Y-108849390D02*
X116677962Y-108801771D01*
X116677962Y-108801771D02*
X116916057Y-108801771D01*
X116916057Y-108801771D02*
X117011295Y-108849390D01*
X117011295Y-108849390D02*
X117058914Y-108897009D01*
X117058914Y-108897009D02*
X117106533Y-108992247D01*
X117106533Y-108992247D02*
X117106533Y-109230342D01*
X117106533Y-109230342D02*
X117058914Y-109325580D01*
X117058914Y-109325580D02*
X117011295Y-109373200D01*
X117011295Y-109373200D02*
X116916057Y-109420819D01*
X116916057Y-109420819D02*
X116677962Y-109420819D01*
X116677962Y-109420819D02*
X116582724Y-109373200D01*
X116582724Y-109373200D02*
X116535105Y-109325580D01*
X74238076Y-109220800D02*
X74380933Y-109268419D01*
X74380933Y-109268419D02*
X74619028Y-109268419D01*
X74619028Y-109268419D02*
X74714266Y-109220800D01*
X74714266Y-109220800D02*
X74761885Y-109173180D01*
X74761885Y-109173180D02*
X74809504Y-109077942D01*
X74809504Y-109077942D02*
X74809504Y-108982704D01*
X74809504Y-108982704D02*
X74761885Y-108887466D01*
X74761885Y-108887466D02*
X74714266Y-108839847D01*
X74714266Y-108839847D02*
X74619028Y-108792228D01*
X74619028Y-108792228D02*
X74428552Y-108744609D01*
X74428552Y-108744609D02*
X74333314Y-108696990D01*
X74333314Y-108696990D02*
X74285695Y-108649371D01*
X74285695Y-108649371D02*
X74238076Y-108554133D01*
X74238076Y-108554133D02*
X74238076Y-108458895D01*
X74238076Y-108458895D02*
X74285695Y-108363657D01*
X74285695Y-108363657D02*
X74333314Y-108316038D01*
X74333314Y-108316038D02*
X74428552Y-108268419D01*
X74428552Y-108268419D02*
X74666647Y-108268419D01*
X74666647Y-108268419D02*
X74809504Y-108316038D01*
X75142838Y-108268419D02*
X75380933Y-109268419D01*
X75380933Y-109268419D02*
X75571409Y-108554133D01*
X75571409Y-108554133D02*
X75761885Y-109268419D01*
X75761885Y-109268419D02*
X75999981Y-108268419D01*
X76904742Y-109268419D02*
X76333314Y-109268419D01*
X76619028Y-109268419D02*
X76619028Y-108268419D01*
X76619028Y-108268419D02*
X76523790Y-108411276D01*
X76523790Y-108411276D02*
X76428552Y-108506514D01*
X76428552Y-108506514D02*
X76333314Y-108554133D01*
X77857123Y-109268419D02*
X77285695Y-109268419D01*
X77571409Y-109268419D02*
X77571409Y-108268419D01*
X77571409Y-108268419D02*
X77476171Y-108411276D01*
X77476171Y-108411276D02*
X77380933Y-108506514D01*
X77380933Y-108506514D02*
X77285695Y-108554133D01*
X140892305Y-90421619D02*
X140892305Y-89421619D01*
X140892305Y-89421619D02*
X141130400Y-89421619D01*
X141130400Y-89421619D02*
X141273257Y-89469238D01*
X141273257Y-89469238D02*
X141368495Y-89564476D01*
X141368495Y-89564476D02*
X141416114Y-89659714D01*
X141416114Y-89659714D02*
X141463733Y-89850190D01*
X141463733Y-89850190D02*
X141463733Y-89993047D01*
X141463733Y-89993047D02*
X141416114Y-90183523D01*
X141416114Y-90183523D02*
X141368495Y-90278761D01*
X141368495Y-90278761D02*
X141273257Y-90374000D01*
X141273257Y-90374000D02*
X141130400Y-90421619D01*
X141130400Y-90421619D02*
X140892305Y-90421619D01*
X142035162Y-89850190D02*
X141939924Y-89802571D01*
X141939924Y-89802571D02*
X141892305Y-89754952D01*
X141892305Y-89754952D02*
X141844686Y-89659714D01*
X141844686Y-89659714D02*
X141844686Y-89612095D01*
X141844686Y-89612095D02*
X141892305Y-89516857D01*
X141892305Y-89516857D02*
X141939924Y-89469238D01*
X141939924Y-89469238D02*
X142035162Y-89421619D01*
X142035162Y-89421619D02*
X142225638Y-89421619D01*
X142225638Y-89421619D02*
X142320876Y-89469238D01*
X142320876Y-89469238D02*
X142368495Y-89516857D01*
X142368495Y-89516857D02*
X142416114Y-89612095D01*
X142416114Y-89612095D02*
X142416114Y-89659714D01*
X142416114Y-89659714D02*
X142368495Y-89754952D01*
X142368495Y-89754952D02*
X142320876Y-89802571D01*
X142320876Y-89802571D02*
X142225638Y-89850190D01*
X142225638Y-89850190D02*
X142035162Y-89850190D01*
X142035162Y-89850190D02*
X141939924Y-89897809D01*
X141939924Y-89897809D02*
X141892305Y-89945428D01*
X141892305Y-89945428D02*
X141844686Y-90040666D01*
X141844686Y-90040666D02*
X141844686Y-90231142D01*
X141844686Y-90231142D02*
X141892305Y-90326380D01*
X141892305Y-90326380D02*
X141939924Y-90374000D01*
X141939924Y-90374000D02*
X142035162Y-90421619D01*
X142035162Y-90421619D02*
X142225638Y-90421619D01*
X142225638Y-90421619D02*
X142320876Y-90374000D01*
X142320876Y-90374000D02*
X142368495Y-90326380D01*
X142368495Y-90326380D02*
X142416114Y-90231142D01*
X142416114Y-90231142D02*
X142416114Y-90040666D01*
X142416114Y-90040666D02*
X142368495Y-89945428D01*
X142368495Y-89945428D02*
X142320876Y-89897809D01*
X142320876Y-89897809D02*
X142225638Y-89850190D01*
X144676845Y-90361069D02*
X144676845Y-89361069D01*
X145248273Y-90361069D02*
X144819702Y-89789640D01*
X145248273Y-89361069D02*
X144676845Y-89932497D01*
X122248705Y-128572419D02*
X122248705Y-127572419D01*
X122248705Y-127572419D02*
X122486800Y-127572419D01*
X122486800Y-127572419D02*
X122629657Y-127620038D01*
X122629657Y-127620038D02*
X122724895Y-127715276D01*
X122724895Y-127715276D02*
X122772514Y-127810514D01*
X122772514Y-127810514D02*
X122820133Y-128000990D01*
X122820133Y-128000990D02*
X122820133Y-128143847D01*
X122820133Y-128143847D02*
X122772514Y-128334323D01*
X122772514Y-128334323D02*
X122724895Y-128429561D01*
X122724895Y-128429561D02*
X122629657Y-128524800D01*
X122629657Y-128524800D02*
X122486800Y-128572419D01*
X122486800Y-128572419D02*
X122248705Y-128572419D01*
X123153467Y-127572419D02*
X123820133Y-127572419D01*
X123820133Y-127572419D02*
X123391562Y-128572419D01*
X125626845Y-128461069D02*
X125626845Y-127461069D01*
X126198273Y-128461069D02*
X125769702Y-127889640D01*
X126198273Y-127461069D02*
X125626845Y-128032497D01*
X74136476Y-128321600D02*
X74279333Y-128369219D01*
X74279333Y-128369219D02*
X74517428Y-128369219D01*
X74517428Y-128369219D02*
X74612666Y-128321600D01*
X74612666Y-128321600D02*
X74660285Y-128273980D01*
X74660285Y-128273980D02*
X74707904Y-128178742D01*
X74707904Y-128178742D02*
X74707904Y-128083504D01*
X74707904Y-128083504D02*
X74660285Y-127988266D01*
X74660285Y-127988266D02*
X74612666Y-127940647D01*
X74612666Y-127940647D02*
X74517428Y-127893028D01*
X74517428Y-127893028D02*
X74326952Y-127845409D01*
X74326952Y-127845409D02*
X74231714Y-127797790D01*
X74231714Y-127797790D02*
X74184095Y-127750171D01*
X74184095Y-127750171D02*
X74136476Y-127654933D01*
X74136476Y-127654933D02*
X74136476Y-127559695D01*
X74136476Y-127559695D02*
X74184095Y-127464457D01*
X74184095Y-127464457D02*
X74231714Y-127416838D01*
X74231714Y-127416838D02*
X74326952Y-127369219D01*
X74326952Y-127369219D02*
X74565047Y-127369219D01*
X74565047Y-127369219D02*
X74707904Y-127416838D01*
X75041238Y-127369219D02*
X75279333Y-128369219D01*
X75279333Y-128369219D02*
X75469809Y-127654933D01*
X75469809Y-127654933D02*
X75660285Y-128369219D01*
X75660285Y-128369219D02*
X75898381Y-127369219D01*
X76803142Y-128369219D02*
X76231714Y-128369219D01*
X76517428Y-128369219D02*
X76517428Y-127369219D01*
X76517428Y-127369219D02*
X76422190Y-127512076D01*
X76422190Y-127512076D02*
X76326952Y-127607314D01*
X76326952Y-127607314D02*
X76231714Y-127654933D01*
X77184095Y-127464457D02*
X77231714Y-127416838D01*
X77231714Y-127416838D02*
X77326952Y-127369219D01*
X77326952Y-127369219D02*
X77565047Y-127369219D01*
X77565047Y-127369219D02*
X77660285Y-127416838D01*
X77660285Y-127416838D02*
X77707904Y-127464457D01*
X77707904Y-127464457D02*
X77755523Y-127559695D01*
X77755523Y-127559695D02*
X77755523Y-127654933D01*
X77755523Y-127654933D02*
X77707904Y-127797790D01*
X77707904Y-127797790D02*
X77136476Y-128369219D01*
X77136476Y-128369219D02*
X77755523Y-128369219D01*
X136233067Y-128423200D02*
X136375924Y-128470819D01*
X136375924Y-128470819D02*
X136614019Y-128470819D01*
X136614019Y-128470819D02*
X136709257Y-128423200D01*
X136709257Y-128423200D02*
X136756876Y-128375580D01*
X136756876Y-128375580D02*
X136804495Y-128280342D01*
X136804495Y-128280342D02*
X136804495Y-128185104D01*
X136804495Y-128185104D02*
X136756876Y-128089866D01*
X136756876Y-128089866D02*
X136709257Y-128042247D01*
X136709257Y-128042247D02*
X136614019Y-127994628D01*
X136614019Y-127994628D02*
X136423543Y-127947009D01*
X136423543Y-127947009D02*
X136328305Y-127899390D01*
X136328305Y-127899390D02*
X136280686Y-127851771D01*
X136280686Y-127851771D02*
X136233067Y-127756533D01*
X136233067Y-127756533D02*
X136233067Y-127661295D01*
X136233067Y-127661295D02*
X136280686Y-127566057D01*
X136280686Y-127566057D02*
X136328305Y-127518438D01*
X136328305Y-127518438D02*
X136423543Y-127470819D01*
X136423543Y-127470819D02*
X136661638Y-127470819D01*
X136661638Y-127470819D02*
X136804495Y-127518438D01*
X137137829Y-127470819D02*
X137375924Y-128470819D01*
X137375924Y-128470819D02*
X137566400Y-127756533D01*
X137566400Y-127756533D02*
X137756876Y-128470819D01*
X137756876Y-128470819D02*
X137994972Y-127470819D01*
X138423543Y-128470819D02*
X138614019Y-128470819D01*
X138614019Y-128470819D02*
X138709257Y-128423200D01*
X138709257Y-128423200D02*
X138756876Y-128375580D01*
X138756876Y-128375580D02*
X138852114Y-128232723D01*
X138852114Y-128232723D02*
X138899733Y-128042247D01*
X138899733Y-128042247D02*
X138899733Y-127661295D01*
X138899733Y-127661295D02*
X138852114Y-127566057D01*
X138852114Y-127566057D02*
X138804495Y-127518438D01*
X138804495Y-127518438D02*
X138709257Y-127470819D01*
X138709257Y-127470819D02*
X138518781Y-127470819D01*
X138518781Y-127470819D02*
X138423543Y-127518438D01*
X138423543Y-127518438D02*
X138375924Y-127566057D01*
X138375924Y-127566057D02*
X138328305Y-127661295D01*
X138328305Y-127661295D02*
X138328305Y-127899390D01*
X138328305Y-127899390D02*
X138375924Y-127994628D01*
X138375924Y-127994628D02*
X138423543Y-128042247D01*
X138423543Y-128042247D02*
X138518781Y-128089866D01*
X138518781Y-128089866D02*
X138709257Y-128089866D01*
X138709257Y-128089866D02*
X138804495Y-128042247D01*
X138804495Y-128042247D02*
X138852114Y-127994628D01*
X138852114Y-127994628D02*
X138899733Y-127899390D01*
X134302667Y-109424000D02*
X134445524Y-109471619D01*
X134445524Y-109471619D02*
X134683619Y-109471619D01*
X134683619Y-109471619D02*
X134778857Y-109424000D01*
X134778857Y-109424000D02*
X134826476Y-109376380D01*
X134826476Y-109376380D02*
X134874095Y-109281142D01*
X134874095Y-109281142D02*
X134874095Y-109185904D01*
X134874095Y-109185904D02*
X134826476Y-109090666D01*
X134826476Y-109090666D02*
X134778857Y-109043047D01*
X134778857Y-109043047D02*
X134683619Y-108995428D01*
X134683619Y-108995428D02*
X134493143Y-108947809D01*
X134493143Y-108947809D02*
X134397905Y-108900190D01*
X134397905Y-108900190D02*
X134350286Y-108852571D01*
X134350286Y-108852571D02*
X134302667Y-108757333D01*
X134302667Y-108757333D02*
X134302667Y-108662095D01*
X134302667Y-108662095D02*
X134350286Y-108566857D01*
X134350286Y-108566857D02*
X134397905Y-108519238D01*
X134397905Y-108519238D02*
X134493143Y-108471619D01*
X134493143Y-108471619D02*
X134731238Y-108471619D01*
X134731238Y-108471619D02*
X134874095Y-108519238D01*
X135207429Y-108471619D02*
X135445524Y-109471619D01*
X135445524Y-109471619D02*
X135636000Y-108757333D01*
X135636000Y-108757333D02*
X135826476Y-109471619D01*
X135826476Y-109471619D02*
X136064572Y-108471619D01*
X136588381Y-108900190D02*
X136493143Y-108852571D01*
X136493143Y-108852571D02*
X136445524Y-108804952D01*
X136445524Y-108804952D02*
X136397905Y-108709714D01*
X136397905Y-108709714D02*
X136397905Y-108662095D01*
X136397905Y-108662095D02*
X136445524Y-108566857D01*
X136445524Y-108566857D02*
X136493143Y-108519238D01*
X136493143Y-108519238D02*
X136588381Y-108471619D01*
X136588381Y-108471619D02*
X136778857Y-108471619D01*
X136778857Y-108471619D02*
X136874095Y-108519238D01*
X136874095Y-108519238D02*
X136921714Y-108566857D01*
X136921714Y-108566857D02*
X136969333Y-108662095D01*
X136969333Y-108662095D02*
X136969333Y-108709714D01*
X136969333Y-108709714D02*
X136921714Y-108804952D01*
X136921714Y-108804952D02*
X136874095Y-108852571D01*
X136874095Y-108852571D02*
X136778857Y-108900190D01*
X136778857Y-108900190D02*
X136588381Y-108900190D01*
X136588381Y-108900190D02*
X136493143Y-108947809D01*
X136493143Y-108947809D02*
X136445524Y-108995428D01*
X136445524Y-108995428D02*
X136397905Y-109090666D01*
X136397905Y-109090666D02*
X136397905Y-109281142D01*
X136397905Y-109281142D02*
X136445524Y-109376380D01*
X136445524Y-109376380D02*
X136493143Y-109424000D01*
X136493143Y-109424000D02*
X136588381Y-109471619D01*
X136588381Y-109471619D02*
X136778857Y-109471619D01*
X136778857Y-109471619D02*
X136874095Y-109424000D01*
X136874095Y-109424000D02*
X136921714Y-109376380D01*
X136921714Y-109376380D02*
X136969333Y-109281142D01*
X136969333Y-109281142D02*
X136969333Y-109090666D01*
X136969333Y-109090666D02*
X136921714Y-108995428D01*
X136921714Y-108995428D02*
X136874095Y-108947809D01*
X136874095Y-108947809D02*
X136778857Y-108900190D01*
X103046305Y-90370819D02*
X103046305Y-89370819D01*
X103046305Y-89370819D02*
X103284400Y-89370819D01*
X103284400Y-89370819D02*
X103427257Y-89418438D01*
X103427257Y-89418438D02*
X103522495Y-89513676D01*
X103522495Y-89513676D02*
X103570114Y-89608914D01*
X103570114Y-89608914D02*
X103617733Y-89799390D01*
X103617733Y-89799390D02*
X103617733Y-89942247D01*
X103617733Y-89942247D02*
X103570114Y-90132723D01*
X103570114Y-90132723D02*
X103522495Y-90227961D01*
X103522495Y-90227961D02*
X103427257Y-90323200D01*
X103427257Y-90323200D02*
X103284400Y-90370819D01*
X103284400Y-90370819D02*
X103046305Y-90370819D01*
X103998686Y-89466057D02*
X104046305Y-89418438D01*
X104046305Y-89418438D02*
X104141543Y-89370819D01*
X104141543Y-89370819D02*
X104379638Y-89370819D01*
X104379638Y-89370819D02*
X104474876Y-89418438D01*
X104474876Y-89418438D02*
X104522495Y-89466057D01*
X104522495Y-89466057D02*
X104570114Y-89561295D01*
X104570114Y-89561295D02*
X104570114Y-89656533D01*
X104570114Y-89656533D02*
X104522495Y-89799390D01*
X104522495Y-89799390D02*
X103951067Y-90370819D01*
X103951067Y-90370819D02*
X104570114Y-90370819D01*
X106576845Y-90361069D02*
X106576845Y-89361069D01*
X107148273Y-90361069D02*
X106719702Y-89789640D01*
X107148273Y-89361069D02*
X106576845Y-89932497D01*
X93459467Y-128264450D02*
X93602324Y-128312069D01*
X93602324Y-128312069D02*
X93840419Y-128312069D01*
X93840419Y-128312069D02*
X93935657Y-128264450D01*
X93935657Y-128264450D02*
X93983276Y-128216830D01*
X93983276Y-128216830D02*
X94030895Y-128121592D01*
X94030895Y-128121592D02*
X94030895Y-128026354D01*
X94030895Y-128026354D02*
X93983276Y-127931116D01*
X93983276Y-127931116D02*
X93935657Y-127883497D01*
X93935657Y-127883497D02*
X93840419Y-127835878D01*
X93840419Y-127835878D02*
X93649943Y-127788259D01*
X93649943Y-127788259D02*
X93554705Y-127740640D01*
X93554705Y-127740640D02*
X93507086Y-127693021D01*
X93507086Y-127693021D02*
X93459467Y-127597783D01*
X93459467Y-127597783D02*
X93459467Y-127502545D01*
X93459467Y-127502545D02*
X93507086Y-127407307D01*
X93507086Y-127407307D02*
X93554705Y-127359688D01*
X93554705Y-127359688D02*
X93649943Y-127312069D01*
X93649943Y-127312069D02*
X93888038Y-127312069D01*
X93888038Y-127312069D02*
X94030895Y-127359688D01*
X94364229Y-127312069D02*
X94602324Y-128312069D01*
X94602324Y-128312069D02*
X94792800Y-127597783D01*
X94792800Y-127597783D02*
X94983276Y-128312069D01*
X94983276Y-128312069D02*
X95221372Y-127312069D01*
X95507086Y-127312069D02*
X96126133Y-127312069D01*
X96126133Y-127312069D02*
X95792800Y-127693021D01*
X95792800Y-127693021D02*
X95935657Y-127693021D01*
X95935657Y-127693021D02*
X96030895Y-127740640D01*
X96030895Y-127740640D02*
X96078514Y-127788259D01*
X96078514Y-127788259D02*
X96126133Y-127883497D01*
X96126133Y-127883497D02*
X96126133Y-128121592D01*
X96126133Y-128121592D02*
X96078514Y-128216830D01*
X96078514Y-128216830D02*
X96030895Y-128264450D01*
X96030895Y-128264450D02*
X95935657Y-128312069D01*
X95935657Y-128312069D02*
X95649943Y-128312069D01*
X95649943Y-128312069D02*
X95554705Y-128264450D01*
X95554705Y-128264450D02*
X95507086Y-128216830D01*
X134048667Y-90374000D02*
X134191524Y-90421619D01*
X134191524Y-90421619D02*
X134429619Y-90421619D01*
X134429619Y-90421619D02*
X134524857Y-90374000D01*
X134524857Y-90374000D02*
X134572476Y-90326380D01*
X134572476Y-90326380D02*
X134620095Y-90231142D01*
X134620095Y-90231142D02*
X134620095Y-90135904D01*
X134620095Y-90135904D02*
X134572476Y-90040666D01*
X134572476Y-90040666D02*
X134524857Y-89993047D01*
X134524857Y-89993047D02*
X134429619Y-89945428D01*
X134429619Y-89945428D02*
X134239143Y-89897809D01*
X134239143Y-89897809D02*
X134143905Y-89850190D01*
X134143905Y-89850190D02*
X134096286Y-89802571D01*
X134096286Y-89802571D02*
X134048667Y-89707333D01*
X134048667Y-89707333D02*
X134048667Y-89612095D01*
X134048667Y-89612095D02*
X134096286Y-89516857D01*
X134096286Y-89516857D02*
X134143905Y-89469238D01*
X134143905Y-89469238D02*
X134239143Y-89421619D01*
X134239143Y-89421619D02*
X134477238Y-89421619D01*
X134477238Y-89421619D02*
X134620095Y-89469238D01*
X134953429Y-89421619D02*
X135191524Y-90421619D01*
X135191524Y-90421619D02*
X135382000Y-89707333D01*
X135382000Y-89707333D02*
X135572476Y-90421619D01*
X135572476Y-90421619D02*
X135810572Y-89421619D01*
X136096286Y-89421619D02*
X136762952Y-89421619D01*
X136762952Y-89421619D02*
X136334381Y-90421619D01*
X94221467Y-109322400D02*
X94364324Y-109370019D01*
X94364324Y-109370019D02*
X94602419Y-109370019D01*
X94602419Y-109370019D02*
X94697657Y-109322400D01*
X94697657Y-109322400D02*
X94745276Y-109274780D01*
X94745276Y-109274780D02*
X94792895Y-109179542D01*
X94792895Y-109179542D02*
X94792895Y-109084304D01*
X94792895Y-109084304D02*
X94745276Y-108989066D01*
X94745276Y-108989066D02*
X94697657Y-108941447D01*
X94697657Y-108941447D02*
X94602419Y-108893828D01*
X94602419Y-108893828D02*
X94411943Y-108846209D01*
X94411943Y-108846209D02*
X94316705Y-108798590D01*
X94316705Y-108798590D02*
X94269086Y-108750971D01*
X94269086Y-108750971D02*
X94221467Y-108655733D01*
X94221467Y-108655733D02*
X94221467Y-108560495D01*
X94221467Y-108560495D02*
X94269086Y-108465257D01*
X94269086Y-108465257D02*
X94316705Y-108417638D01*
X94316705Y-108417638D02*
X94411943Y-108370019D01*
X94411943Y-108370019D02*
X94650038Y-108370019D01*
X94650038Y-108370019D02*
X94792895Y-108417638D01*
X95126229Y-108370019D02*
X95364324Y-109370019D01*
X95364324Y-109370019D02*
X95554800Y-108655733D01*
X95554800Y-108655733D02*
X95745276Y-109370019D01*
X95745276Y-109370019D02*
X95983372Y-108370019D01*
X96316705Y-108465257D02*
X96364324Y-108417638D01*
X96364324Y-108417638D02*
X96459562Y-108370019D01*
X96459562Y-108370019D02*
X96697657Y-108370019D01*
X96697657Y-108370019D02*
X96792895Y-108417638D01*
X96792895Y-108417638D02*
X96840514Y-108465257D01*
X96840514Y-108465257D02*
X96888133Y-108560495D01*
X96888133Y-108560495D02*
X96888133Y-108655733D01*
X96888133Y-108655733D02*
X96840514Y-108798590D01*
X96840514Y-108798590D02*
X96269086Y-109370019D01*
X96269086Y-109370019D02*
X96888133Y-109370019D01*
X131727676Y-50207200D02*
X131870533Y-50254819D01*
X131870533Y-50254819D02*
X132108628Y-50254819D01*
X132108628Y-50254819D02*
X132203866Y-50207200D01*
X132203866Y-50207200D02*
X132251485Y-50159580D01*
X132251485Y-50159580D02*
X132299104Y-50064342D01*
X132299104Y-50064342D02*
X132299104Y-49969104D01*
X132299104Y-49969104D02*
X132251485Y-49873866D01*
X132251485Y-49873866D02*
X132203866Y-49826247D01*
X132203866Y-49826247D02*
X132108628Y-49778628D01*
X132108628Y-49778628D02*
X131918152Y-49731009D01*
X131918152Y-49731009D02*
X131822914Y-49683390D01*
X131822914Y-49683390D02*
X131775295Y-49635771D01*
X131775295Y-49635771D02*
X131727676Y-49540533D01*
X131727676Y-49540533D02*
X131727676Y-49445295D01*
X131727676Y-49445295D02*
X131775295Y-49350057D01*
X131775295Y-49350057D02*
X131822914Y-49302438D01*
X131822914Y-49302438D02*
X131918152Y-49254819D01*
X131918152Y-49254819D02*
X132156247Y-49254819D01*
X132156247Y-49254819D02*
X132299104Y-49302438D01*
X132632438Y-49254819D02*
X132870533Y-50254819D01*
X132870533Y-50254819D02*
X133061009Y-49540533D01*
X133061009Y-49540533D02*
X133251485Y-50254819D01*
X133251485Y-50254819D02*
X133489581Y-49254819D01*
X134394342Y-50254819D02*
X133822914Y-50254819D01*
X134108628Y-50254819D02*
X134108628Y-49254819D01*
X134108628Y-49254819D02*
X134013390Y-49397676D01*
X134013390Y-49397676D02*
X133918152Y-49492914D01*
X133918152Y-49492914D02*
X133822914Y-49540533D01*
X134727676Y-49254819D02*
X135394342Y-49254819D01*
X135394342Y-49254819D02*
X134965771Y-50254819D01*
X97301276Y-71324000D02*
X97444133Y-71371619D01*
X97444133Y-71371619D02*
X97682228Y-71371619D01*
X97682228Y-71371619D02*
X97777466Y-71324000D01*
X97777466Y-71324000D02*
X97825085Y-71276380D01*
X97825085Y-71276380D02*
X97872704Y-71181142D01*
X97872704Y-71181142D02*
X97872704Y-71085904D01*
X97872704Y-71085904D02*
X97825085Y-70990666D01*
X97825085Y-70990666D02*
X97777466Y-70943047D01*
X97777466Y-70943047D02*
X97682228Y-70895428D01*
X97682228Y-70895428D02*
X97491752Y-70847809D01*
X97491752Y-70847809D02*
X97396514Y-70800190D01*
X97396514Y-70800190D02*
X97348895Y-70752571D01*
X97348895Y-70752571D02*
X97301276Y-70657333D01*
X97301276Y-70657333D02*
X97301276Y-70562095D01*
X97301276Y-70562095D02*
X97348895Y-70466857D01*
X97348895Y-70466857D02*
X97396514Y-70419238D01*
X97396514Y-70419238D02*
X97491752Y-70371619D01*
X97491752Y-70371619D02*
X97729847Y-70371619D01*
X97729847Y-70371619D02*
X97872704Y-70419238D01*
X98206038Y-70371619D02*
X98444133Y-71371619D01*
X98444133Y-71371619D02*
X98634609Y-70657333D01*
X98634609Y-70657333D02*
X98825085Y-71371619D01*
X98825085Y-71371619D02*
X99063181Y-70371619D01*
X99967942Y-71371619D02*
X99396514Y-71371619D01*
X99682228Y-71371619D02*
X99682228Y-70371619D01*
X99682228Y-70371619D02*
X99586990Y-70514476D01*
X99586990Y-70514476D02*
X99491752Y-70609714D01*
X99491752Y-70609714D02*
X99396514Y-70657333D01*
X100825085Y-70704952D02*
X100825085Y-71371619D01*
X100586990Y-70324000D02*
X100348895Y-71038285D01*
X100348895Y-71038285D02*
X100967942Y-71038285D01*
X116706876Y-71324000D02*
X116849733Y-71371619D01*
X116849733Y-71371619D02*
X117087828Y-71371619D01*
X117087828Y-71371619D02*
X117183066Y-71324000D01*
X117183066Y-71324000D02*
X117230685Y-71276380D01*
X117230685Y-71276380D02*
X117278304Y-71181142D01*
X117278304Y-71181142D02*
X117278304Y-71085904D01*
X117278304Y-71085904D02*
X117230685Y-70990666D01*
X117230685Y-70990666D02*
X117183066Y-70943047D01*
X117183066Y-70943047D02*
X117087828Y-70895428D01*
X117087828Y-70895428D02*
X116897352Y-70847809D01*
X116897352Y-70847809D02*
X116802114Y-70800190D01*
X116802114Y-70800190D02*
X116754495Y-70752571D01*
X116754495Y-70752571D02*
X116706876Y-70657333D01*
X116706876Y-70657333D02*
X116706876Y-70562095D01*
X116706876Y-70562095D02*
X116754495Y-70466857D01*
X116754495Y-70466857D02*
X116802114Y-70419238D01*
X116802114Y-70419238D02*
X116897352Y-70371619D01*
X116897352Y-70371619D02*
X117135447Y-70371619D01*
X117135447Y-70371619D02*
X117278304Y-70419238D01*
X117611638Y-70371619D02*
X117849733Y-71371619D01*
X117849733Y-71371619D02*
X118040209Y-70657333D01*
X118040209Y-70657333D02*
X118230685Y-71371619D01*
X118230685Y-71371619D02*
X118468781Y-70371619D01*
X119373542Y-71371619D02*
X118802114Y-71371619D01*
X119087828Y-71371619D02*
X119087828Y-70371619D01*
X119087828Y-70371619D02*
X118992590Y-70514476D01*
X118992590Y-70514476D02*
X118897352Y-70609714D01*
X118897352Y-70609714D02*
X118802114Y-70657333D01*
X120278304Y-70371619D02*
X119802114Y-70371619D01*
X119802114Y-70371619D02*
X119754495Y-70847809D01*
X119754495Y-70847809D02*
X119802114Y-70800190D01*
X119802114Y-70800190D02*
X119897352Y-70752571D01*
X119897352Y-70752571D02*
X120135447Y-70752571D01*
X120135447Y-70752571D02*
X120230685Y-70800190D01*
X120230685Y-70800190D02*
X120278304Y-70847809D01*
X120278304Y-70847809D02*
X120325923Y-70943047D01*
X120325923Y-70943047D02*
X120325923Y-71181142D01*
X120325923Y-71181142D02*
X120278304Y-71276380D01*
X120278304Y-71276380D02*
X120230685Y-71324000D01*
X120230685Y-71324000D02*
X120135447Y-71371619D01*
X120135447Y-71371619D02*
X119897352Y-71371619D01*
X119897352Y-71371619D02*
X119802114Y-71324000D01*
X119802114Y-71324000D02*
X119754495Y-71276380D01*
X79165676Y-90374000D02*
X79308533Y-90421619D01*
X79308533Y-90421619D02*
X79546628Y-90421619D01*
X79546628Y-90421619D02*
X79641866Y-90374000D01*
X79641866Y-90374000D02*
X79689485Y-90326380D01*
X79689485Y-90326380D02*
X79737104Y-90231142D01*
X79737104Y-90231142D02*
X79737104Y-90135904D01*
X79737104Y-90135904D02*
X79689485Y-90040666D01*
X79689485Y-90040666D02*
X79641866Y-89993047D01*
X79641866Y-89993047D02*
X79546628Y-89945428D01*
X79546628Y-89945428D02*
X79356152Y-89897809D01*
X79356152Y-89897809D02*
X79260914Y-89850190D01*
X79260914Y-89850190D02*
X79213295Y-89802571D01*
X79213295Y-89802571D02*
X79165676Y-89707333D01*
X79165676Y-89707333D02*
X79165676Y-89612095D01*
X79165676Y-89612095D02*
X79213295Y-89516857D01*
X79213295Y-89516857D02*
X79260914Y-89469238D01*
X79260914Y-89469238D02*
X79356152Y-89421619D01*
X79356152Y-89421619D02*
X79594247Y-89421619D01*
X79594247Y-89421619D02*
X79737104Y-89469238D01*
X80070438Y-89421619D02*
X80308533Y-90421619D01*
X80308533Y-90421619D02*
X80499009Y-89707333D01*
X80499009Y-89707333D02*
X80689485Y-90421619D01*
X80689485Y-90421619D02*
X80927581Y-89421619D01*
X81832342Y-90421619D02*
X81260914Y-90421619D01*
X81546628Y-90421619D02*
X81546628Y-89421619D01*
X81546628Y-89421619D02*
X81451390Y-89564476D01*
X81451390Y-89564476D02*
X81356152Y-89659714D01*
X81356152Y-89659714D02*
X81260914Y-89707333D01*
X82451390Y-89421619D02*
X82546628Y-89421619D01*
X82546628Y-89421619D02*
X82641866Y-89469238D01*
X82641866Y-89469238D02*
X82689485Y-89516857D01*
X82689485Y-89516857D02*
X82737104Y-89612095D01*
X82737104Y-89612095D02*
X82784723Y-89802571D01*
X82784723Y-89802571D02*
X82784723Y-90040666D01*
X82784723Y-90040666D02*
X82737104Y-90231142D01*
X82737104Y-90231142D02*
X82689485Y-90326380D01*
X82689485Y-90326380D02*
X82641866Y-90374000D01*
X82641866Y-90374000D02*
X82546628Y-90421619D01*
X82546628Y-90421619D02*
X82451390Y-90421619D01*
X82451390Y-90421619D02*
X82356152Y-90374000D01*
X82356152Y-90374000D02*
X82308533Y-90326380D01*
X82308533Y-90326380D02*
X82260914Y-90231142D01*
X82260914Y-90231142D02*
X82213295Y-90040666D01*
X82213295Y-90040666D02*
X82213295Y-89802571D01*
X82213295Y-89802571D02*
X82260914Y-89612095D01*
X82260914Y-89612095D02*
X82308533Y-89516857D01*
X82308533Y-89516857D02*
X82356152Y-89469238D01*
X82356152Y-89469238D02*
X82451390Y-89421619D01*
X102792305Y-109471619D02*
X102792305Y-108471619D01*
X102792305Y-108471619D02*
X103030400Y-108471619D01*
X103030400Y-108471619D02*
X103173257Y-108519238D01*
X103173257Y-108519238D02*
X103268495Y-108614476D01*
X103268495Y-108614476D02*
X103316114Y-108709714D01*
X103316114Y-108709714D02*
X103363733Y-108900190D01*
X103363733Y-108900190D02*
X103363733Y-109043047D01*
X103363733Y-109043047D02*
X103316114Y-109233523D01*
X103316114Y-109233523D02*
X103268495Y-109328761D01*
X103268495Y-109328761D02*
X103173257Y-109424000D01*
X103173257Y-109424000D02*
X103030400Y-109471619D01*
X103030400Y-109471619D02*
X102792305Y-109471619D01*
X103697067Y-108471619D02*
X104316114Y-108471619D01*
X104316114Y-108471619D02*
X103982781Y-108852571D01*
X103982781Y-108852571D02*
X104125638Y-108852571D01*
X104125638Y-108852571D02*
X104220876Y-108900190D01*
X104220876Y-108900190D02*
X104268495Y-108947809D01*
X104268495Y-108947809D02*
X104316114Y-109043047D01*
X104316114Y-109043047D02*
X104316114Y-109281142D01*
X104316114Y-109281142D02*
X104268495Y-109376380D01*
X104268495Y-109376380D02*
X104220876Y-109424000D01*
X104220876Y-109424000D02*
X104125638Y-109471619D01*
X104125638Y-109471619D02*
X103839924Y-109471619D01*
X103839924Y-109471619D02*
X103744686Y-109424000D01*
X103744686Y-109424000D02*
X103697067Y-109376380D01*
X106576845Y-109411069D02*
X106576845Y-108411069D01*
X107148273Y-109411069D02*
X106719702Y-108839640D01*
X107148273Y-108411069D02*
X106576845Y-108982497D01*
X101858914Y-71422419D02*
X101858914Y-70422419D01*
X101858914Y-70422419D02*
X102097009Y-70422419D01*
X102097009Y-70422419D02*
X102239866Y-70470038D01*
X102239866Y-70470038D02*
X102335104Y-70565276D01*
X102335104Y-70565276D02*
X102382723Y-70660514D01*
X102382723Y-70660514D02*
X102430342Y-70850990D01*
X102430342Y-70850990D02*
X102430342Y-70993847D01*
X102430342Y-70993847D02*
X102382723Y-71184323D01*
X102382723Y-71184323D02*
X102335104Y-71279561D01*
X102335104Y-71279561D02*
X102239866Y-71374800D01*
X102239866Y-71374800D02*
X102097009Y-71422419D01*
X102097009Y-71422419D02*
X101858914Y-71422419D01*
X103382723Y-71422419D02*
X102811295Y-71422419D01*
X103097009Y-71422419D02*
X103097009Y-70422419D01*
X103097009Y-70422419D02*
X103001771Y-70565276D01*
X103001771Y-70565276D02*
X102906533Y-70660514D01*
X102906533Y-70660514D02*
X102811295Y-70708133D01*
X104239866Y-70755752D02*
X104239866Y-71422419D01*
X104001771Y-70374800D02*
X103763676Y-71089085D01*
X103763676Y-71089085D02*
X104382723Y-71089085D01*
X106576845Y-71311069D02*
X106576845Y-70311069D01*
X107148273Y-71311069D02*
X106719702Y-70739640D01*
X107148273Y-70311069D02*
X106576845Y-70882497D01*
D11*
%TO.C,D1*%
X81208750Y-88106250D02*
X81858750Y-88106250D01*
X85258750Y-89226250D02*
X85258750Y-86986250D01*
X85378750Y-89226250D02*
X85378750Y-86986250D01*
X85498750Y-89226250D02*
X85498750Y-86986250D01*
X86748750Y-88106250D02*
X86098750Y-88106250D01*
X86098750Y-89226250D02*
X81858750Y-89226250D01*
X81858750Y-86986250D01*
X86098750Y-86986250D01*
X86098750Y-89226250D01*
%TO.C,D9*%
X138358750Y-107156250D02*
X139008750Y-107156250D01*
X142408750Y-108276250D02*
X142408750Y-106036250D01*
X142528750Y-108276250D02*
X142528750Y-106036250D01*
X142648750Y-108276250D02*
X142648750Y-106036250D01*
X143898750Y-107156250D02*
X143248750Y-107156250D01*
X143248750Y-108276250D02*
X139008750Y-108276250D01*
X139008750Y-106036250D01*
X143248750Y-106036250D01*
X143248750Y-108276250D01*
%TO.C,SW6*%
X111760000Y-128746250D02*
X125730000Y-128746250D01*
X111760000Y-142716250D02*
X111760000Y-128746250D01*
X125730000Y-128746250D02*
X125730000Y-142716250D01*
X125730000Y-142716250D02*
X111760000Y-142716250D01*
%TO.C,D11*%
X81208750Y-107156250D02*
X81858750Y-107156250D01*
X85258750Y-108276250D02*
X85258750Y-106036250D01*
X85378750Y-108276250D02*
X85378750Y-106036250D01*
X85498750Y-108276250D02*
X85498750Y-106036250D01*
X86748750Y-107156250D02*
X86098750Y-107156250D01*
X86098750Y-108276250D02*
X81858750Y-108276250D01*
X81858750Y-106036250D01*
X86098750Y-106036250D01*
X86098750Y-108276250D01*
%TO.C,D6*%
X119308750Y-107156250D02*
X119958750Y-107156250D01*
X123358750Y-108276250D02*
X123358750Y-106036250D01*
X123478750Y-108276250D02*
X123478750Y-106036250D01*
X123598750Y-108276250D02*
X123598750Y-106036250D01*
X124848750Y-107156250D02*
X124198750Y-107156250D01*
X124198750Y-108276250D02*
X119958750Y-108276250D01*
X119958750Y-106036250D01*
X124198750Y-106036250D01*
X124198750Y-108276250D01*
%TO.C,D15*%
X119308750Y-69056250D02*
X119958750Y-69056250D01*
X123358750Y-70176250D02*
X123358750Y-67936250D01*
X123478750Y-70176250D02*
X123478750Y-67936250D01*
X123598750Y-70176250D02*
X123598750Y-67936250D01*
X124848750Y-69056250D02*
X124198750Y-69056250D01*
X124198750Y-70176250D02*
X119958750Y-70176250D01*
X119958750Y-67936250D01*
X124198750Y-67936250D01*
X124198750Y-70176250D01*
%TO.C,D4*%
X100258750Y-126206250D02*
X100908750Y-126206250D01*
X104308750Y-127326250D02*
X104308750Y-125086250D01*
X104428750Y-127326250D02*
X104428750Y-125086250D01*
X104548750Y-127326250D02*
X104548750Y-125086250D01*
X105798750Y-126206250D02*
X105148750Y-126206250D01*
X105148750Y-127326250D02*
X100908750Y-127326250D01*
X100908750Y-125086250D01*
X105148750Y-125086250D01*
X105148750Y-127326250D01*
%TO.C,SW16*%
X130810000Y-71596250D02*
X144780000Y-71596250D01*
X130810000Y-85566250D02*
X130810000Y-71596250D01*
X144780000Y-71596250D02*
X144780000Y-85566250D01*
X144780000Y-85566250D02*
X130810000Y-85566250D01*
%TO.C,D10*%
X138358750Y-126206250D02*
X139008750Y-126206250D01*
X142408750Y-127326250D02*
X142408750Y-125086250D01*
X142528750Y-127326250D02*
X142528750Y-125086250D01*
X142648750Y-127326250D02*
X142648750Y-125086250D01*
X143898750Y-126206250D02*
X143248750Y-126206250D01*
X143248750Y-127326250D02*
X139008750Y-127326250D01*
X139008750Y-125086250D01*
X143248750Y-125086250D01*
X143248750Y-127326250D01*
%TO.C,SW4*%
X111760000Y-90646250D02*
X125730000Y-90646250D01*
X111760000Y-104616250D02*
X111760000Y-90646250D01*
X125730000Y-90646250D02*
X125730000Y-104616250D01*
X125730000Y-104616250D02*
X111760000Y-104616250D01*
%TO.C,SW1*%
X92710000Y-90646250D02*
X106680000Y-90646250D01*
X92710000Y-104616250D02*
X92710000Y-90646250D01*
X106680000Y-90646250D02*
X106680000Y-104616250D01*
X106680000Y-104616250D02*
X92710000Y-104616250D01*
%TO.C,D16*%
X138358750Y-69056250D02*
X139008750Y-69056250D01*
X142408750Y-70176250D02*
X142408750Y-67936250D01*
X142528750Y-70176250D02*
X142528750Y-67936250D01*
X142648750Y-70176250D02*
X142648750Y-67936250D01*
X143898750Y-69056250D02*
X143248750Y-69056250D01*
X143248750Y-70176250D02*
X139008750Y-70176250D01*
X139008750Y-67936250D01*
X143248750Y-67936250D01*
X143248750Y-70176250D01*
%TO.C,D13*%
X90000000Y-72040000D02*
X90000000Y-72690000D01*
X90000000Y-77580000D02*
X90000000Y-76930000D01*
X91120000Y-73290000D02*
X88880000Y-73290000D01*
X91120000Y-73410000D02*
X88880000Y-73410000D01*
X91120000Y-73530000D02*
X88880000Y-73530000D01*
X91120000Y-72690000D02*
X88880000Y-72690000D01*
X88880000Y-76930000D01*
X91120000Y-76930000D01*
X91120000Y-72690000D01*
%TO.C,D12*%
X81208750Y-126206250D02*
X81858750Y-126206250D01*
X85258750Y-127326250D02*
X85258750Y-125086250D01*
X85378750Y-127326250D02*
X85378750Y-125086250D01*
X85498750Y-127326250D02*
X85498750Y-125086250D01*
X86748750Y-126206250D02*
X86098750Y-126206250D01*
X86098750Y-127326250D02*
X81858750Y-127326250D01*
X81858750Y-125086250D01*
X86098750Y-125086250D01*
X86098750Y-127326250D01*
%TO.C,D5*%
X119308750Y-88106250D02*
X119958750Y-88106250D01*
X123358750Y-89226250D02*
X123358750Y-86986250D01*
X123478750Y-89226250D02*
X123478750Y-86986250D01*
X123598750Y-89226250D02*
X123598750Y-86986250D01*
X124848750Y-88106250D02*
X124198750Y-88106250D01*
X124198750Y-89226250D02*
X119958750Y-89226250D01*
X119958750Y-86986250D01*
X124198750Y-86986250D01*
X124198750Y-89226250D01*
%TO.C,SW5*%
X111760000Y-109696250D02*
X125730000Y-109696250D01*
X111760000Y-123666250D02*
X111760000Y-109696250D01*
X125730000Y-109696250D02*
X125730000Y-123666250D01*
X125730000Y-123666250D02*
X111760000Y-123666250D01*
%TO.C,SW11*%
X73660000Y-109696250D02*
X87630000Y-109696250D01*
X73660000Y-123666250D02*
X73660000Y-109696250D01*
X87630000Y-109696250D02*
X87630000Y-123666250D01*
X87630000Y-123666250D02*
X73660000Y-123666250D01*
D12*
%TO.C,U1*%
X69735400Y-62462072D02*
X69735400Y-54466800D01*
X70235400Y-53966800D02*
X71145400Y-53966800D01*
D13*
X71145400Y-51485800D02*
X71145400Y-65455800D01*
D12*
X71145400Y-51485800D02*
X71145400Y-65455800D01*
X71145400Y-62965800D02*
X70235128Y-62962072D01*
X90195400Y-49580800D02*
X73050400Y-49580800D01*
X90195400Y-67360800D02*
X73050400Y-67360800D01*
X92100400Y-65455800D02*
X92100400Y-51485800D01*
X69735400Y-54466800D02*
G75*
G02*
X70235400Y-53966800I500000J0D01*
G01*
X70235128Y-62962072D02*
G75*
G02*
X69735401Y-62462072I291J500018D01*
G01*
X71145400Y-51485800D02*
G75*
G02*
X73050400Y-49580800I1905000J0D01*
G01*
X73050400Y-67360800D02*
G75*
G02*
X71145400Y-65455800I1J1905001D01*
G01*
X90195400Y-49580800D02*
G75*
G02*
X92100400Y-51485800I0J-1905000D01*
G01*
X92100400Y-65455800D02*
G75*
G02*
X90195400Y-67360800I-1905001J1D01*
G01*
D14*
X71638400Y-67420800D02*
G75*
G02*
X71134400Y-67420800I-252000J0D01*
G01*
X71134400Y-67420800D02*
G75*
G02*
X71638400Y-67420800I252000J0D01*
G01*
X72518400Y-66277800D02*
G75*
G02*
X72014400Y-66277800I-252000J0D01*
G01*
X72014400Y-66277800D02*
G75*
G02*
X72518400Y-66277800I252000J0D01*
G01*
D11*
%TO.C,SW13*%
X73660000Y-71596250D02*
X87630000Y-71596250D01*
X73660000Y-85566250D02*
X73660000Y-71596250D01*
X87630000Y-71596250D02*
X87630000Y-85566250D01*
X87630000Y-85566250D02*
X73660000Y-85566250D01*
%TO.C,D8*%
X138358750Y-88106250D02*
X139008750Y-88106250D01*
X142408750Y-89226250D02*
X142408750Y-86986250D01*
X142528750Y-89226250D02*
X142528750Y-86986250D01*
X142648750Y-89226250D02*
X142648750Y-86986250D01*
X143898750Y-88106250D02*
X143248750Y-88106250D01*
X143248750Y-89226250D02*
X139008750Y-89226250D01*
X139008750Y-86986250D01*
X143248750Y-86986250D01*
X143248750Y-89226250D01*
%TO.C,D7*%
X119308750Y-126206250D02*
X119958750Y-126206250D01*
X123358750Y-127326250D02*
X123358750Y-125086250D01*
X123478750Y-127326250D02*
X123478750Y-125086250D01*
X123598750Y-127326250D02*
X123598750Y-125086250D01*
X124848750Y-126206250D02*
X124198750Y-126206250D01*
X124198750Y-127326250D02*
X119958750Y-127326250D01*
X119958750Y-125086250D01*
X124198750Y-125086250D01*
X124198750Y-127326250D01*
%TO.C,SW12*%
X73660000Y-128746250D02*
X87630000Y-128746250D01*
X73660000Y-142716250D02*
X73660000Y-128746250D01*
X87630000Y-128746250D02*
X87630000Y-142716250D01*
X87630000Y-142716250D02*
X73660000Y-142716250D01*
%TO.C,SW9*%
X130810000Y-128746250D02*
X144780000Y-128746250D01*
X130810000Y-142716250D02*
X130810000Y-128746250D01*
X144780000Y-128746250D02*
X144780000Y-142716250D01*
X144780000Y-142716250D02*
X130810000Y-142716250D01*
%TO.C,SW8*%
X130810000Y-109696250D02*
X144780000Y-109696250D01*
X130810000Y-123666250D02*
X130810000Y-109696250D01*
X144780000Y-109696250D02*
X144780000Y-123666250D01*
X144780000Y-123666250D02*
X130810000Y-123666250D01*
%TO.C,D2*%
X100258750Y-88106250D02*
X100908750Y-88106250D01*
X104308750Y-89226250D02*
X104308750Y-86986250D01*
X104428750Y-89226250D02*
X104428750Y-86986250D01*
X104548750Y-89226250D02*
X104548750Y-86986250D01*
X105798750Y-88106250D02*
X105148750Y-88106250D01*
X105148750Y-89226250D02*
X100908750Y-89226250D01*
X100908750Y-86986250D01*
X105148750Y-86986250D01*
X105148750Y-89226250D01*
%TO.C,SW3*%
X92710000Y-128746250D02*
X106680000Y-128746250D01*
X92710000Y-142716250D02*
X92710000Y-128746250D01*
X106680000Y-128746250D02*
X106680000Y-142716250D01*
X106680000Y-142716250D02*
X92710000Y-142716250D01*
%TO.C,SW7*%
X130810000Y-90646250D02*
X144780000Y-90646250D01*
X130810000Y-104616250D02*
X130810000Y-90646250D01*
X144780000Y-90646250D02*
X144780000Y-104616250D01*
X144780000Y-104616250D02*
X130810000Y-104616250D01*
%TO.C,SW2*%
X92710000Y-109696250D02*
X106680000Y-109696250D01*
X92710000Y-123666250D02*
X92710000Y-109696250D01*
X106680000Y-109696250D02*
X106680000Y-123666250D01*
X106680000Y-123666250D02*
X92710000Y-123666250D01*
%TO.C,SW17*%
X130437200Y-52900000D02*
X131037200Y-52900000D01*
X130737200Y-53200000D02*
X130437200Y-52900000D01*
X131037200Y-52900000D02*
X130737200Y-53200000D01*
X132137200Y-51100000D02*
X132137200Y-62900000D01*
X136237200Y-51100000D02*
X132137200Y-51100000D01*
X136237200Y-62900000D02*
X132137200Y-62900000D01*
X137737200Y-57000000D02*
X138737200Y-57000000D01*
X138237200Y-56500000D02*
X138237200Y-57500000D01*
X140237200Y-51100000D02*
X144337200Y-51100000D01*
X144337200Y-51100000D02*
X144337200Y-53500000D01*
X144337200Y-55700000D02*
X144337200Y-58300000D01*
X144337200Y-60500000D02*
X144337200Y-62900000D01*
X144337200Y-62900000D02*
X140237200Y-62900000D01*
X141237200Y-57000000D02*
G75*
G02*
X135237200Y-57000000I-3000000J0D01*
G01*
X135237200Y-57000000D02*
G75*
G02*
X141237200Y-57000000I3000000J0D01*
G01*
%TO.C,SW14*%
X92710000Y-71596250D02*
X106680000Y-71596250D01*
X92710000Y-85566250D02*
X92710000Y-71596250D01*
X106680000Y-71596250D02*
X106680000Y-85566250D01*
X106680000Y-85566250D02*
X92710000Y-85566250D01*
%TO.C,SW15*%
X111760000Y-71596250D02*
X125730000Y-71596250D01*
X111760000Y-85566250D02*
X111760000Y-71596250D01*
X125730000Y-71596250D02*
X125730000Y-85566250D01*
X125730000Y-85566250D02*
X111760000Y-85566250D01*
%TO.C,SW10*%
X73660000Y-90646250D02*
X87630000Y-90646250D01*
X73660000Y-104616250D02*
X73660000Y-90646250D01*
X87630000Y-90646250D02*
X87630000Y-104616250D01*
X87630000Y-104616250D02*
X73660000Y-104616250D01*
%TO.C,D3*%
X100258750Y-107156250D02*
X100908750Y-107156250D01*
X104308750Y-108276250D02*
X104308750Y-106036250D01*
X104428750Y-108276250D02*
X104428750Y-106036250D01*
X104548750Y-108276250D02*
X104548750Y-106036250D01*
X105798750Y-107156250D02*
X105148750Y-107156250D01*
X105148750Y-108276250D02*
X100908750Y-108276250D01*
X100908750Y-106036250D01*
X105148750Y-106036250D01*
X105148750Y-108276250D01*
%TO.C,D14*%
X100258750Y-69056250D02*
X100908750Y-69056250D01*
X104308750Y-70176250D02*
X104308750Y-67936250D01*
X104428750Y-70176250D02*
X104428750Y-67936250D01*
X104548750Y-70176250D02*
X104548750Y-67936250D01*
X105798750Y-69056250D02*
X105148750Y-69056250D01*
X105148750Y-70176250D02*
X100908750Y-70176250D01*
X100908750Y-67936250D01*
X105148750Y-67936250D01*
X105148750Y-70176250D01*
%TD*%
M02*
